<?xml version="1.0" encoding="UTF-8" standalone="no"?>
<!-- Created with Inkscape (http://www.inkscape.org/) -->

<svg
   xmlns:dc="http://purl.org/dc/elements/1.1/"
   xmlns:cc="http://creativecommons.org/ns#"
   xmlns:rdf="http://www.w3.org/1999/02/22-rdf-syntax-ns#"
   xmlns:svg="http://www.w3.org/2000/svg"
   xmlns="http://www.w3.org/2000/svg"
   xmlns:xlink="http://www.w3.org/1999/xlink"
   xmlns:sodipodi="http://sodipodi.sourceforge.net/DTD/sodipodi-0.dtd"
   xmlns:inkscape="http://www.inkscape.org/namespaces/inkscape"
   width="800"
   height="1200"
   viewBox="0 0 800.00001 1200"
   id="svg2"
   version="1.1"
   inkscape:version="0.91 r13725"
   sodipodi:docname="back_5.svg">
  <defs
     id="defs4">
    <linearGradient
       inkscape:collect="always"
       id="linearGradient5297">
      <stop
         style="stop-color:#4d4d4d;stop-opacity:1;"
         offset="0"
         id="stop5299" />
      <stop
         style="stop-color:#4d4d4d;stop-opacity:0;"
         offset="1"
         id="stop5301" />
    </linearGradient>
    <radialGradient
       inkscape:collect="always"
       xlink:href="#linearGradient5297"
       id="radialGradient5305"
       cx="394.07458"
       cy="279.97498"
       fx="394.07458"
       fy="279.97498"
       r="227.47911"
       gradientTransform="matrix(1,0,0,0.98265404,-798.14467,35.85644)"
       gradientUnits="userSpaceOnUse" />
  </defs>
  <sodipodi:namedview
     id="base"
     pagecolor="#ffffff"
     bordercolor="#666666"
     borderopacity="1.0"
     inkscape:pageopacity="0.0"
     inkscape:pageshadow="2"
     inkscape:zoom="0.5"
     inkscape:cx="203.1102"
     inkscape:cy="466.38318"
     inkscape:document-units="px"
     inkscape:current-layer="layer1"
     showgrid="false"
     units="px"
     inkscape:window-width="1920"
     inkscape:window-height="1017"
     inkscape:window-x="-8"
     inkscape:window-y="-8"
     inkscape:window-maximized="1" />
  <metadata
     id="metadata7">
    <rdf:RDF>
      <cc:Work
         rdf:about="">
        <dc:format>image/svg+xml</dc:format>
        <dc:type
           rdf:resource="http://purl.org/dc/dcmitype/StillImage" />
        <dc:title></dc:title>
      </cc:Work>
    </rdf:RDF>
  </metadata>
  <g
     inkscape:label="Layer 1"
     inkscape:groupmode="layer"
     id="layer1"
     transform="translate(0,147.63784)">
    <rect
       style="fill:#1a1a1a"
       id="rect3336"
       width="800"
       height="1200"
       x="0"
       y="-147.63783"
       inkscape:export-xdpi="90"
       inkscape:export-ydpi="90" />
    <path
       sodipodi:type="star"
       style="opacity:0.5;fill:#8b8b8b;fill-opacity:0.37647059"
       id="path3340"
       sodipodi:sides="6"
       sodipodi:cx="328.57144"
       sodipodi:cy="26.647865"
       sodipodi:r1="31.943829"
       sodipodi:r2="9.583149"
       sodipodi:arg1="1.1071487"
       sodipodi:arg2="1.6307475"
       inkscape:flatsided="false"
       inkscape:rounded="0"
       inkscape:randomized="0"
       d="m 342.85716,55.219294 -14.8599,-19.005496 -17.02654,17.091574 9.02929,-22.371792 -23.31501,-6.199637 23.88919,-3.366296 -6.28846,-23.2912103 14.85989,19.0054963 17.02655,-17.09157406 -9.0293,22.37179206 23.31501,6.199637 -23.88919,3.366295 z"
       inkscape:transform-center-x="0.64967182"
       inkscape:transform-center-y="1.0539013"
       transform="matrix(0.10657315,0.55517326,0.55921342,-0.10580319,44.14167,55.07382)" />
    <path
       sodipodi:type="star"
       style="opacity:0.5;fill:#8b8b8b;fill-opacity:0.37647059"
       id="path4162"
       sodipodi:sides="7"
       sodipodi:cx="202"
       sodipodi:cy="589.36218"
       sodipodi:r1="34.713112"
       sodipodi:r2="10.413934"
       sodipodi:arg1="0.84654633"
       sodipodi:arg2="1.2953453"
       inkscape:flatsided="false"
       inkscape:rounded="0"
       inkscape:randomized="0"
       d="m 225,615.36218 -20.16761,-15.97864 -8.81974,24.1715 -0.0817,-25.73019 -24.39707,8.17513 20.06574,-16.10638 -21.60289,-13.97728 25.10326,5.64586 -2.54131,-25.60452 11.23752,23.14666 18.43394,-17.95103 -11.09032,23.21755 25.52806,3.21995 -25.06691,5.80515 z"
       inkscape:transform-center-x="1.036103"
       inkscape:transform-center-y="0.66733385"
       transform="matrix(-0.01306117,-0.52341412,0.50279548,-0.01254666,238.5584,1054.4875)" />
    <path
       sodipodi:type="star"
       style="opacity:0.5;fill:#e6e6e6;fill-opacity:0.37647059;fill-rule:nonzero;stroke:none;stroke-width:2;stroke-miterlimit:4;stroke-dasharray:none;stroke-dashoffset:0;stroke-opacity:0.78431373"
       id="path4175"
       sodipodi:sides="5"
       sodipodi:cx="622"
       sodipodi:cy="781.36212"
       sodipodi:r1="13.341664"
       sodipodi:r2="4.0024991"
       sodipodi:arg1="1.3439975"
       sodipodi:arg2="1.972316"
       inkscape:flatsided="false"
       inkscape:rounded="0"
       inkscape:randomized="0"
       d="m 625,794.36212 -4.56425,-9.31583 -9.87243,3.18622 7.44944,-7.2196 -6.08102,-8.40465 9.16826,4.85386 6.11416,-8.38058 -1.78316,10.21946 9.85979,3.22517 -10.27031,1.46211 z"
       inkscape:transform-center-x="-1.1247112"
       inkscape:transform-center-y="0.42688366"
       transform="matrix(1.2132256,0,0,1.1866818,-130.18774,-148.29293)" />
    <path
       sodipodi:type="star"
       style="opacity:0.5;fill:#e6e6e6;fill-opacity:0.37647059;fill-rule:nonzero;stroke:none;stroke-width:2;stroke-miterlimit:4;stroke-dasharray:none;stroke-dashoffset:0;stroke-opacity:0.78431373"
       id="path4177"
       sodipodi:sides="7"
       sodipodi:cx="206"
       sodipodi:cy="819.36212"
       sodipodi:r1="10.221546"
       sodipodi:r2="25.553865"
       sodipodi:arg1="1.0370881"
       sodipodi:arg2="1.4858871"
       inkscape:flatsided="false"
       inkscape:rounded="0"
       inkscape:randomized="0"
       d="m 211.2,828.16212 -3.03285,16.66181 -5.80512,-15.90957 -14.91767,8.01729 8.81917,-14.45809 -15.56919,-6.66441 16.80244,-2.11936 L 193,797.36212 l 12.13314,11.81528 9.96179,-13.69586 -1.67267,16.85277 16.91893,-0.75079 -14.21893,9.19979 11.13578,12.75964 z" />
    <path
       inkscape:transform-center-y="0.35971166"
       inkscape:transform-center-x="-0.92705099"
       d="M 620,310.36218 614.87868,300.75629 604,300.36218 613.60589,295.24086 614,284.36218 l 5.12132,9.60589 10.87868,0.39411 -9.60589,5.12132 z"
       inkscape:randomized="0"
       inkscape:rounded="0"
       inkscape:flatsided="false"
       sodipodi:arg2="2.1293957"
       sodipodi:arg1="1.3439975"
       sodipodi:r2="4.0024991"
       sodipodi:r1="13.341664"
       sodipodi:cy="297.36218"
       sodipodi:cx="617"
       sodipodi:sides="4"
       id="path4179"
       style="opacity:0.5;fill:#e6e6e6;fill-opacity:0.37647059;fill-rule:nonzero;stroke:none;stroke-width:2;stroke-miterlimit:4;stroke-dasharray:none;stroke-dashoffset:0;stroke-opacity:0.78431373"
       sodipodi:type="star" />
    <path
       sodipodi:type="star"
       style="opacity:0.5;fill:#e6e6e6;fill-opacity:0.37647059;fill-rule:nonzero;stroke:none;stroke-width:2;stroke-miterlimit:4;stroke-dasharray:none;stroke-dashoffset:0;stroke-opacity:0.78431373"
       id="path4181"
       sodipodi:sides="4"
       sodipodi:cx="195"
       sodipodi:cy="447.36217"
       sodipodi:r1="13.341664"
       sodipodi:r2="4.0024991"
       sodipodi:arg1="1.3439975"
       sodipodi:arg2="2.1293957"
       inkscape:flatsided="false"
       inkscape:rounded="0"
       inkscape:randomized="0"
       d="M 198,460.36218 192.87868,450.75629 182,450.36218 191.60589,445.24086 192,434.36218 l 5.12132,9.60589 10.87868,0.39411 -9.60589,5.12132 z"
       inkscape:transform-center-x="-0.92705099"
       inkscape:transform-center-y="0.35971166" />
    <path
       inkscape:transform-center-y="0.35971166"
       inkscape:transform-center-x="-0.92705099"
       d="M 164,706.36212 158.87868,696.75623 148,696.36212 157.60589,691.2408 158,680.36212 l 5.12132,9.60589 10.87868,0.39411 -9.60589,5.12132 z"
       inkscape:randomized="0"
       inkscape:rounded="0"
       inkscape:flatsided="false"
       sodipodi:arg2="2.1293957"
       sodipodi:arg1="1.3439975"
       sodipodi:r2="4.0024991"
       sodipodi:r1="13.341664"
       sodipodi:cy="693.36212"
       sodipodi:cx="161"
       sodipodi:sides="4"
       id="path5289"
       style="opacity:0.5;fill:#e6e6e6;fill-opacity:0.37647059;fill-rule:nonzero;stroke:none;stroke-width:2;stroke-miterlimit:4;stroke-dasharray:none;stroke-dashoffset:0;stroke-opacity:0.78431373"
       sodipodi:type="star" />
    <path
       sodipodi:type="spiral"
       style="opacity:1;fill:none;fill-rule:evenodd;stroke:url(#radialGradient5305);stroke-width:2;stroke-linecap:round;stroke-linejoin:round;stroke-miterlimit:4;stroke-dasharray:none;stroke-opacity:0.37647059"
       id="path5295"
       sodipodi:cx="-400.14465"
       sodipodi:cy="306.36215"
       sodipodi:expansion="0.69999999"
       sodipodi:revolution="8.9444933"
       sodipodi:radius="232.0773"
       sodipodi:argument="-15.459642"
       sodipodi:t0="0"
       d="m -400.14465,306.36215 c -12.60867,-3.19698 -4.03744,-16.8881 4.66275,-18.38958 14.83932,-2.56096 25.60242,12.51732 25.2112,25.96425 -0.59364,20.40457 -20.63484,34.05706 -39.93463,32.10396 -25.30809,-2.56113 -41.83914,-27.61003 -38.46971,-51.9837 4.1244,-29.83494 33.90929,-49.09394 62.91577,-44.42989 34.08817,5.48116 55.93819,39.74604 50.07273,73.07858 -6.70924,38.12766 -45.23828,62.45296 -82.66396,55.45901 -41.99313,-7.84749 -68.69577,-50.45956 -60.632,-91.79228 8.91832,-45.71287 55.4596,-74.70892 100.54546,-65.6237 49.30793,9.93601 80.52449,60.27394 70.4586,108.98247 -10.91029,52.79454 -64.92918,86.16753 -117.14764,75.15592 -56.18553,-11.84817 -91.65801,-69.44582 -79.73109,-125.07532 12.75488,-59.49131 73.84013,-97.01219 132.79288,-84.19675 62.72038,13.63448 102.24351,78.12526 88.56336,140.32252 -14.49015,65.87991 -82.31207,107.36326 -147.68261,92.83979 -68.97594,-15.32449 -112.38101,-86.40962 -97.03356,-154.88857 16.13963,-72.01363 90.42562,-117.30497 161.95347,-101.15117 74.99747,16.93737 122.14227,94.36666 105.19827,168.88858 -17.7192,77.93136 -98.23845,126.89913 -175.70364,109.1798 -80.81871,-18.48642 -131.58102,-102.04596 -113.1001,-182.40716 19.24014,-83.66258 105.79357,-136.1928 189.00665,-116.96309 86.46565,19.98135 140.73878,109.48517 120.77219,195.50877 -20.71088,89.23035 -113.1242,145.22284 -201.91946,124.53054 -91.95884,-21.42952 -149.64847,-116.71377 -128.24092,-208.24404 22.13793,-94.65311 120.25666,-154.01882 214.48732,-131.90589 97.31492,22.83671 158.33675,123.75539 135.52774,220.65363 -23.5264,99.94591 -127.21224,162.60489 -226.74692,139.10862 -102.54758,-24.20751 -166.82563,-130.62932 -142.65043,-232.77082 24.88046,-105.12127 134.00852,-171.001165 238.7286,-146.15497 107.66825,25.54568 175.13351,137.3516 149.62388,244.62332 -26.20354,110.18968 -140.66019,179.22454 -250.45776,153.05867 C -564.42485,482.98927 -635.0142,365.90789 -608.19896,253.60914 -580.70047,138.44902 -461.01927,66.319677 -346.243,93.777705 -228.63196,121.9139 -154.97656,244.17098 -183.07107,361.40204 -211.83882,481.44233 -336.64878,556.61038 -456.31278,527.88543 -549.52737,505.50957 -620.26741,424.75878 -631.05236,329.63238"
       transform="scale(-1,1)" />
    <path
       transform="matrix(0.10657315,0.55517326,0.55921342,-0.10580319,123.14167,-156.92618)"
       inkscape:transform-center-y="1.0539013"
       inkscape:transform-center-x="0.64967182"
       d="m 342.85716,55.219294 -14.8599,-19.005496 -17.02654,17.091574 9.02929,-22.371792 -23.31501,-6.199637 23.88919,-3.366296 -6.28846,-23.2912103 14.85989,19.0054963 17.02655,-17.09157406 -9.0293,22.37179206 23.31501,6.199637 -23.88919,3.366295 z"
       inkscape:randomized="0"
       inkscape:rounded="0"
       inkscape:flatsided="false"
       sodipodi:arg2="1.6307475"
       sodipodi:arg1="1.1071487"
       sodipodi:r2="9.583149"
       sodipodi:r1="31.943829"
       sodipodi:cy="26.647865"
       sodipodi:cx="328.57144"
       sodipodi:sides="6"
       id="path4160"
       style="opacity:0.5;fill:#8b8b8b;fill-opacity:0.37647059"
       sodipodi:type="star" />
    <path
       sodipodi:type="star"
       style="opacity:0.5;fill:#8b8b8b;fill-opacity:0.37647059"
       id="path4163"
       sodipodi:sides="6"
       sodipodi:cx="328.57144"
       sodipodi:cy="26.647865"
       sodipodi:r1="31.943829"
       sodipodi:r2="9.583149"
       sodipodi:arg1="1.1071487"
       sodipodi:arg2="1.6307475"
       inkscape:flatsided="false"
       inkscape:rounded="0"
       inkscape:randomized="0"
       d="m 342.85716,55.219294 -14.8599,-19.005496 -17.02654,17.091574 9.02929,-22.371792 -23.31501,-6.199637 23.88919,-3.366296 -6.28846,-23.2912103 14.85989,19.0054963 17.02655,-17.09157406 -9.0293,22.37179206 23.31501,6.199637 -23.88919,3.366295 z"
       inkscape:transform-center-x="0.64967182"
       inkscape:transform-center-y="1.0539013"
       transform="matrix(0.10657315,0.55517326,0.55921342,-0.10580319,394.14167,-202.92618)" />
    <path
       transform="matrix(0.10657315,0.55517326,0.55921342,-0.10580319,618.14167,-116.92618)"
       inkscape:transform-center-y="1.0539013"
       inkscape:transform-center-x="0.64967182"
       d="m 342.85716,55.219294 -14.8599,-19.005496 -17.02654,17.091574 9.02929,-22.371792 -23.31501,-6.199637 23.88919,-3.366296 -6.28846,-23.2912103 14.85989,19.0054963 17.02655,-17.09157406 -9.0293,22.37179206 23.31501,6.199637 -23.88919,3.366295 z"
       inkscape:randomized="0"
       inkscape:rounded="0"
       inkscape:flatsided="false"
       sodipodi:arg2="1.6307475"
       sodipodi:arg1="1.1071487"
       sodipodi:r2="9.583149"
       sodipodi:r1="31.943829"
       sodipodi:cy="26.647865"
       sodipodi:cx="328.57144"
       sodipodi:sides="6"
       id="path4165"
       style="opacity:0.5;fill:#8b8b8b;fill-opacity:0.37647059"
       sodipodi:type="star" />
    <path
       sodipodi:type="star"
       style="opacity:0.5;fill:#8b8b8b;fill-opacity:0.37647059"
       id="path4167"
       sodipodi:sides="6"
       sodipodi:cx="328.57144"
       sodipodi:cy="26.647865"
       sodipodi:r1="31.943829"
       sodipodi:r2="9.583149"
       sodipodi:arg1="1.1071487"
       sodipodi:arg2="1.6307475"
       inkscape:flatsided="false"
       inkscape:rounded="0"
       inkscape:randomized="0"
       d="m 342.85716,55.219294 -14.8599,-19.005496 -17.02654,17.091574 9.02929,-22.371792 -23.31501,-6.199637 23.88919,-3.366296 -6.28846,-23.2912103 14.85989,19.0054963 17.02655,-17.09157406 -9.0293,22.37179206 23.31501,6.199637 -23.88919,3.366295 z"
       inkscape:transform-center-x="0.64967182"
       inkscape:transform-center-y="1.0539013"
       transform="matrix(0.10657315,0.55517326,0.55921342,-0.10580319,667.14167,110.07382)" />
    <path
       transform="matrix(0.10657315,0.55517326,0.55921342,-0.10580319,618.14167,328.07382)"
       inkscape:transform-center-y="1.0539013"
       inkscape:transform-center-x="0.64967182"
       d="m 342.85716,55.219294 -14.8599,-19.005496 -17.02654,17.091574 9.02929,-22.371792 -23.31501,-6.199637 23.88919,-3.366296 -6.28846,-23.2912103 14.85989,19.0054963 17.02655,-17.09157406 -9.0293,22.37179206 23.31501,6.199637 -23.88919,3.366295 z"
       inkscape:randomized="0"
       inkscape:rounded="0"
       inkscape:flatsided="false"
       sodipodi:arg2="1.6307475"
       sodipodi:arg1="1.1071487"
       sodipodi:r2="9.583149"
       sodipodi:r1="31.943829"
       sodipodi:cy="26.647865"
       sodipodi:cx="328.57144"
       sodipodi:sides="6"
       id="path4169"
       style="opacity:0.5;fill:#8b8b8b;fill-opacity:0.37647059"
       sodipodi:type="star" />
    <path
       sodipodi:type="star"
       style="opacity:0.5;fill:#8b8b8b;fill-opacity:0.37647059"
       id="path4171"
       sodipodi:sides="6"
       sodipodi:cx="328.57144"
       sodipodi:cy="26.647865"
       sodipodi:r1="31.943829"
       sodipodi:r2="9.583149"
       sodipodi:arg1="1.1071487"
       sodipodi:arg2="1.6307475"
       inkscape:flatsided="false"
       inkscape:rounded="0"
       inkscape:randomized="0"
       d="m 342.85716,55.219294 -14.8599,-19.005496 -17.02654,17.091574 9.02929,-22.371792 -23.31501,-6.199637 23.88919,-3.366296 -6.28846,-23.2912103 14.85989,19.0054963 17.02655,-17.09157406 -9.0293,22.37179206 23.31501,6.199637 -23.88919,3.366295 z"
       inkscape:transform-center-x="0.64967182"
       inkscape:transform-center-y="1.0539013"
       transform="matrix(0.10657315,0.55517326,0.55921342,-0.10580319,406.14167,470.07382)" />
    <path
       transform="matrix(0.10657315,0.55517326,0.55921342,-0.10580319,163.14167,420.07382)"
       inkscape:transform-center-y="1.0539013"
       inkscape:transform-center-x="0.64967182"
       d="m 342.85716,55.219294 -14.8599,-19.005496 -17.02654,17.091574 9.02929,-22.371792 -23.31501,-6.199637 23.88919,-3.366296 -6.28846,-23.2912103 14.85989,19.0054963 17.02655,-17.09157406 -9.0293,22.37179206 23.31501,6.199637 -23.88919,3.366295 z"
       inkscape:randomized="0"
       inkscape:rounded="0"
       inkscape:flatsided="false"
       sodipodi:arg2="1.6307475"
       sodipodi:arg1="1.1071487"
       sodipodi:r2="9.583149"
       sodipodi:r1="31.943829"
       sodipodi:cy="26.647865"
       sodipodi:cx="328.57144"
       sodipodi:sides="6"
       id="path4173"
       style="opacity:0.5;fill:#8b8b8b;fill-opacity:0.37647059"
       sodipodi:type="star" />
    <path
       sodipodi:type="star"
       style="opacity:0.5;fill:#8b8b8b;fill-opacity:0.37647059"
       id="path4176"
       sodipodi:sides="6"
       sodipodi:cx="328.57144"
       sodipodi:cy="26.647865"
       sodipodi:r1="31.943829"
       sodipodi:r2="9.583149"
       sodipodi:arg1="1.1071487"
       sodipodi:arg2="1.6307475"
       inkscape:flatsided="false"
       inkscape:rounded="0"
       inkscape:randomized="0"
       d="m 342.85716,55.219294 -14.8599,-19.005496 -17.02654,17.091574 9.02929,-22.371792 -23.31501,-6.199637 23.88919,-3.366296 -6.28846,-23.2912103 14.85989,19.0054963 17.02655,-17.09157406 -9.0293,22.37179206 23.31501,6.199637 -23.88919,3.366295 z"
       inkscape:transform-center-x="0.64967182"
       inkscape:transform-center-y="1.0539013"
       transform="matrix(0.10657315,0.55517326,0.55921342,-0.10580319,27.14167,244.07382)" />
    <rect
       style="opacity:0.5;fill:#b3b3b3;fill-opacity:0.25098039;fill-rule:nonzero;stroke:#4d4d4d;stroke-width:1.30422306;stroke-linecap:round;stroke-linejoin:round;stroke-miterlimit:4;stroke-dasharray:none;stroke-dashoffset:0;stroke-opacity:0.37647059"
       id="rect4178"
       width="226.69577"
       height="1.6957769"
       x="189.95451"
       y="46.66996"
       transform="matrix(0.98736848,-0.15844079,0.15844079,0.98736848,0,0)" />
    <rect
       transform="matrix(-0.93769648,-0.34745549,-0.37679894,0.92629507,0,0)"
       y="-174.40126"
       x="-618.92883"
       height="1.3845887"
       width="191.57741"
       id="rect4180"
       style="opacity:0.5;fill:#b3b3b3;fill-opacity:0.25098039;fill-rule:nonzero;stroke:#4d4d4d;stroke-width:1.0833739;stroke-linecap:round;stroke-linejoin:round;stroke-miterlimit:4;stroke-dasharray:none;stroke-dashoffset:0;stroke-opacity:0.37647059" />
    <rect
       transform="matrix(0.31429118,-0.94932663,0.93815524,0.34621489,0,0)"
       y="165.38631"
       x="-170.15681"
       height="1.3543493"
       width="188.90424"
       id="rect4182"
       style="opacity:0.5;fill:#b3b3b3;fill-opacity:0.25098039;fill-rule:nonzero;stroke:#4d4d4d;stroke-width:1.06397629;stroke-linecap:round;stroke-linejoin:round;stroke-miterlimit:4;stroke-dasharray:none;stroke-dashoffset:0;stroke-opacity:0.37647059" />
    <rect
       transform="matrix(-0.98652506,-0.16361024,-0.15342652,0.98816006,0,0)"
       y="563.34186"
       x="-522.58362"
       height="1.564589"
       width="202.71204"
       id="rect4184"
       style="opacity:0.5;fill:#b3b3b3;fill-opacity:0.25098039;fill-rule:nonzero;stroke:#4d4d4d;stroke-width:1.18463814;stroke-linecap:round;stroke-linejoin:round;stroke-miterlimit:4;stroke-dasharray:none;stroke-dashoffset:0;stroke-opacity:0.37647059" />
    <rect
       style="opacity:0.5;fill:#b3b3b3;fill-opacity:0.25098039;fill-rule:nonzero;stroke:#4d4d4d;stroke-width:1.00076437;stroke-linecap:round;stroke-linejoin:round;stroke-miterlimit:4;stroke-dasharray:none;stroke-dashoffset:0;stroke-opacity:0.37647059"
       id="rect4186"
       width="177.67015"
       height="1.2739656"
       x="-575.26831"
       y="202.94896"
       transform="matrix(-0.61596165,-0.78777614,-0.76687114,0.6418011,0,0)" />
    <rect
       transform="matrix(-0.78355164,-0.62132667,-0.64985535,0.76005791,0,0)"
       y="226.79616"
       x="-967.03455"
       height="1.2710443"
       width="179.75513"
       id="rect4188"
       style="opacity:0.5;fill:#b3b3b3;fill-opacity:0.25098039;fill-rule:nonzero;stroke:#4d4d4d;stroke-width:1.00546455;stroke-linecap:round;stroke-linejoin:round;stroke-miterlimit:4;stroke-dasharray:none;stroke-dashoffset:0;stroke-opacity:0.37647059" />
    <rect
       style="opacity:0.5;fill:#b3b3b3;fill-opacity:0.25098039;fill-rule:nonzero;stroke:#4d4d4d;stroke-width:1.18901777;stroke-linecap:round;stroke-linejoin:round;stroke-miterlimit:4;stroke-dasharray:none;stroke-dashoffset:0;stroke-opacity:0.37647059"
       id="rect4190"
       width="208.61258"
       height="1.531597"
       x="48.152443"
       y="793.82214"
       transform="matrix(0.83778166,-0.54600539,0.54905547,0.83578591,0,0)" />
    <rect
       style="opacity:0.5;fill:#b3b3b3;fill-opacity:0.25098039;fill-rule:nonzero;stroke:#4d4d4d;stroke-width:1.09571004;stroke-linecap:round;stroke-linejoin:round;stroke-miterlimit:4;stroke-dasharray:none;stroke-dashoffset:0;stroke-opacity:0.37647059"
       id="rect4192"
       width="196.89757"
       height="1.3780323"
       x="-415.04477"
       y="-656.09442"
       transform="matrix(-0.16726323,-0.98591227,-0.97732663,0.21173725,0,0)" />
    <rect
       style="opacity:0.5;fill:#b3b3b3;fill-opacity:0.25098039;fill-rule:nonzero;stroke:#4d4d4d;stroke-width:1.06397629;stroke-linecap:round;stroke-linejoin:round;stroke-miterlimit:4;stroke-dasharray:none;stroke-dashoffset:0;stroke-opacity:0.37647059"
       id="rect4194"
       width="188.90424"
       height="1.3543493"
       x="-335.30026"
       y="754.32086"
       transform="matrix(0.18072426,-0.9835338,0.97685969,0.21388115,0,0)" />
    <rect
       transform="matrix(0.46158833,-0.88709425,0.78999122,0.61311815,0,0)"
       y="926.6026"
       x="-396.53723"
       height="0.9332608"
       width="139.34659"
       id="rect4196"
       style="opacity:0.5;fill:#b3b3b3;fill-opacity:0.25098039;fill-rule:nonzero;stroke:#4d4d4d;stroke-width:0.7585696;stroke-linecap:round;stroke-linejoin:round;stroke-miterlimit:4;stroke-dasharray:none;stroke-dashoffset:0;stroke-opacity:0.37647059" />
    <path
       sodipodi:type="star"
       style="opacity:0.5;fill:#e6e6e6;fill-opacity:0.37647059;fill-rule:nonzero;stroke:none;stroke-width:2;stroke-miterlimit:4;stroke-dasharray:none;stroke-dashoffset:0;stroke-opacity:0.78431373"
       id="path4198"
       sodipodi:sides="4"
       sodipodi:cx="247"
       sodipodi:cy="133.36212"
       sodipodi:r1="13.341664"
       sodipodi:r2="4.0024991"
       sodipodi:arg1="1.3439975"
       sodipodi:arg2="2.1293957"
       inkscape:flatsided="false"
       inkscape:rounded="0"
       inkscape:randomized="0"
       d="M 250,146.36212 244.87868,136.75623 234,136.36212 243.60589,131.2408 244,120.36212 l 5.12132,9.60589 10.87868,0.39411 -9.60589,5.12132 z"
       inkscape:transform-center-x="-0.92705099"
       inkscape:transform-center-y="0.35971166" />
  </g>
</svg>
