<?xml version="1.0" encoding="UTF-8" standalone="no"?>
<!-- Created with Inkscape (http://www.inkscape.org/) -->

<svg
   xmlns:dc="http://purl.org/dc/elements/1.1/"
   xmlns:cc="http://creativecommons.org/ns#"
   xmlns:rdf="http://www.w3.org/1999/02/22-rdf-syntax-ns#"
   xmlns:svg="http://www.w3.org/2000/svg"
   xmlns="http://www.w3.org/2000/svg"
   xmlns:sodipodi="http://sodipodi.sourceforge.net/DTD/sodipodi-0.dtd"
   xmlns:inkscape="http://www.inkscape.org/namespaces/inkscape"
   width="800"
   height="1200"
   viewBox="0 0 800.00001 1200"
   id="svg2"
   version="1.1"
   inkscape:version="0.91 r13725"
   sodipodi:docname="back.svg">
  <defs
     id="defs4" />
  <sodipodi:namedview
     id="base"
     pagecolor="#ffffff"
     bordercolor="#666666"
     borderopacity="1.0"
     inkscape:pageopacity="0.0"
     inkscape:pageshadow="2"
     inkscape:zoom="0.5"
     inkscape:cx="-442"
     inkscape:cy="671.57009"
     inkscape:document-units="px"
     inkscape:current-layer="layer1"
     showgrid="false"
     units="px"
     inkscape:window-width="1920"
     inkscape:window-height="1017"
     inkscape:window-x="-8"
     inkscape:window-y="-8"
     inkscape:window-maximized="1" />
  <metadata
     id="metadata7">
    <rdf:RDF>
      <cc:Work
         rdf:about="">
        <dc:format>image/svg+xml</dc:format>
        <dc:type
           rdf:resource="http://purl.org/dc/dcmitype/StillImage" />
        <dc:title />
      </cc:Work>
    </rdf:RDF>
  </metadata>
  <g
     inkscape:label="Layer 1"
     inkscape:groupmode="layer"
     id="layer1"
     transform="translate(0,147.63784)">
    <rect
       style="fill:#1a1a1a"
       id="rect3336"
       width="800"
       height="1200"
       x="0"
       y="-147.63783"
       inkscape:export-xdpi="90"
       inkscape:export-ydpi="90" />
    <rect
       style="opacity:0.5;fill:#8b8b8b;fill-opacity:0.3764706"
       id="rect3352"
       width="225.28262"
       height="3.4457383"
       x="-35.057224"
       y="244.9079"
       transform="matrix(0.71776799,-0.69628235,0.69055706,0.72327792,0,0)" />
    <rect
       style="opacity:0.5;fill:#8b8b8b;fill-opacity:0.3764706"
       id="rect3354"
       width="80.676888"
       height="2.6369655"
       x="199.8709"
       y="-117.07541"
       transform="matrix(0.90382406,0.42790428,-0.42237671,0.90642039,0,0)" />
    <rect
       style="opacity:0.5;fill:#8b8b8b;fill-opacity:0.3764706"
       id="rect4156"
       width="191.53033"
       height="2.9930208"
       x="702.21814"
       y="639.55334"
       transform="matrix(0.96054586,0.27812165,-0.28780836,0.95768802,0,0)" />
    <rect
       style="opacity:0.5;fill:#8b8b8b;fill-opacity:0.3764706"
       id="rect4158"
       width="132.63895"
       height="2.8705649"
       x="75.636963"
       y="1105.8647"
       transform="matrix(0.85680134,-0.51564664,0.44872349,0.89367065,0,0)" />
    <rect
       style="opacity:0.5;fill:#8b8b8b;fill-opacity:0.3764706"
       id="rect4160"
       width="2.1367724"
       height="128.74695"
       x="209.82089"
       y="974.2041"
       transform="matrix(0.85194257,-0.52363523,0.31036142,0.95061863,0,0)" />
    <path
       sodipodi:type="star"
       style="fill:#8b8b8b;opacity:0.5;fill-opacity:0.3764706"
       id="path3338"
       sodipodi:sides="5"
       sodipodi:cx="220"
       sodipodi:cy="-13.352134"
       sodipodi:r1="58.901508"
       sodipodi:r2="29.450754"
       sodipodi:arg1="0.68231655"
       sodipodi:arg2="1.3106351"
       inkscape:flatsided="false"
       inkscape:rounded="0"
       inkscape:randomized="0"
       d="m 265.71429,23.790723 -38.13849,-8.683164 -28.77426,26.49495 -3.52726,-38.9550957 -34.08994,-19.1785663 35.95852,-15.392409 7.70553,-38.347957 25.75084,29.442064 38.85222,-4.521774 -20.04362,33.588605 z"
       inkscape:transform-center-x="2.9522713"
       inkscape:transform-center-y="-0.6486912"
       transform="matrix(0.63054336,0,0,0.66033224,59.550625,-23.868969)" />
    <path
       sodipodi:type="star"
       style="fill:#8b8b8b;opacity:0.5;fill-opacity:0.3764706"
       id="path3340"
       sodipodi:sides="6"
       sodipodi:cx="328.57144"
       sodipodi:cy="26.647865"
       sodipodi:r1="31.943829"
       sodipodi:r2="15.971914"
       sodipodi:arg1="1.1071487"
       sodipodi:arg2="1.6307475"
       inkscape:flatsided="false"
       inkscape:rounded="0"
       inkscape:randomized="0"
       d="m 342.85716,55.219294 -15.24268,-12.628208 -16.64376,10.714286 3.31501,-19.51465 -17.60073,-9.056779 18.55769,-6.886441 -0.95696,-19.7710653 15.24267,12.6282083 16.64377,-10.71428606 -3.31501,19.51464906 17.60072,9.05678 -18.55769,6.88644 z"
       inkscape:transform-center-x="-1.6181609"
       inkscape:transform-center-y="-1.4701375" />
    <path
       sodipodi:type="star"
       style="fill:#8b8b8b;opacity:0.5;fill-opacity:0.3764706"
       id="path3342"
       sodipodi:sides="5"
       sodipodi:cx="126.71429"
       sodipodi:cy="221.93359"
       sodipodi:r1="24.578072"
       sodipodi:r2="12.289036"
       sodipodi:arg1="0.62024949"
       sodipodi:arg2="1.248568"
       inkscape:flatsided="false"
       inkscape:rounded="0"
       inkscape:randomized="0"
       d="m 146.71429,236.21931 -16.1083,-2.62917 -11.29788,11.77911 -2.47725,-16.13236 -14.69384,-7.10498 14.57727,-7.34117 2.21659,-16.17024 11.4865,11.59526 16.06377,-2.88877 -7.47823,14.50744 z"
       inkscape:transform-center-x="2.2886361"
       inkscape:transform-center-y="0.061284069" />
    <path
       sodipodi:type="star"
       style="fill:#8b8b8b;opacity:0.5;fill-opacity:0.3764706"
       id="path3344"
       sodipodi:sides="6"
       sodipodi:cx="540"
       sodipodi:cy="958.07654"
       sodipodi:r1="36.140316"
       sodipodi:r2="18.070158"
       sodipodi:arg1="-1.8925469"
       sodipodi:arg2="-1.3689481"
       inkscape:flatsided="false"
       inkscape:rounded="0"
       inkscape:randomized="0"
       d="m 528.57143,923.79082 15.05128,16.58243 20.3553,-9.337 -6.83515,21.326 18.26373,12.95971 -21.88644,4.74359 -2.09158,22.2967 -15.05128,-16.58242 -20.3553,9.337 6.83515,-21.32601 -18.26373,-12.95971 21.88644,-4.74358 z"
       inkscape:transform-center-x="3.3703646"
       inkscape:transform-center-y="0.084778489" />
    <path
       sodipodi:type="star"
       style="fill:#8b8b8b;opacity:0.5;fill-opacity:0.3764706"
       id="path3346"
       sodipodi:sides="6"
       sodipodi:cx="694.28571"
       sodipodi:cy="869.50504"
       sodipodi:r1="20.203051"
       sodipodi:r2="10.101525"
       sodipodi:arg1="-0.78539816"
       sodipodi:arg2="-0.26179939"
       inkscape:flatsided="false"
       inkscape:rounded="0"
       inkscape:randomized="0"
       d="m 708.57142,855.21935 -4.52839,11.67125 9.75732,7.8434 -12.37179,1.91392 -1.91392,12.37179 -7.8434,-9.75732 -11.67125,4.52839 4.52839,-11.67125 -9.75732,-7.8434 12.37179,-1.91392 1.91392,-12.37179 7.8434,9.75732 z" />
    <path
       sodipodi:type="star"
       style="fill:#8b8b8b;opacity:0.5;fill-opacity:0.3764706"
       id="path3348"
       sodipodi:sides="6"
       sodipodi:cx="474.28571"
       sodipodi:cy="803.79075"
       sodipodi:r1="16.659863"
       sodipodi:r2="8.3299313"
       sodipodi:arg1="0.5404195"
       sodipodi:arg2="1.0640183"
       inkscape:flatsided="false"
       inkscape:rounded="0"
       inkscape:randomized="0"
       d="m 488.57142,812.3622 -10.24268,-1.28846 -4.32325,9.37454 -4.0055,-9.51465 -10.28022,0.94322 6.23718,-8.22619 -5.95696,-8.43132 10.24268,1.28847 4.32325,-9.37454 4.0055,9.51464 10.28022,-0.94322 -6.23718,8.22619 z" />
    <rect
       style="opacity:0.5;fill:#8b8b8b;fill-opacity:0.3764706"
       id="rect4166"
       width="352.57288"
       height="3.0441577"
       x="-80.989754"
       y="609.89069"
       transform="matrix(0.8701155,-0.49284787,0.48752811,0.87310729,0,0)" />
    <path
       sodipodi:type="star"
       style="opacity:0.5;fill:#8b8b8b;fill-opacity:0.3764706"
       id="path4162"
       sodipodi:sides="7"
       sodipodi:cx="202"
       sodipodi:cy="589.36218"
       sodipodi:r1="34.713112"
       sodipodi:r2="17.356556"
       sodipodi:arg1="0.84654633"
       sodipodi:arg2="1.2953453"
       inkscape:flatsided="false"
       inkscape:rounded="0"
       inkscape:randomized="0"
       d="m 225,615.36218 -18.27935,-9.29774 -10.708,17.4906 -4.12772,-20.08841 -20.35104,2.53335 13.13217,-15.7521 -14.66932,-14.33156 20.50326,0.44586 2.05869,-20.40452 12.43499,16.30809 17.23647,-11.11246 -4.9971,19.88999 19.43484,6.54751 -18.66626,8.49433 z"
       inkscape:transform-center-x="1.0274736"
       inkscape:transform-center-y="-2.3223805" />
    <path
       sodipodi:type="star"
       style="opacity:0.5;fill:#8b8b8b;fill-opacity:0.3764706"
       id="path4164"
       sodipodi:sides="5"
       sodipodi:cx="557"
       sodipodi:cy="388.36215"
       sodipodi:r1="19.416489"
       sodipodi:r2="9.7082443"
       sodipodi:arg1="0.60228735"
       sodipodi:arg2="1.2306059"
       inkscape:flatsided="false"
       inkscape:rounded="0"
       inkscape:randomized="0"
       d="m 573,399.36215 -12.76068,-1.84812 -8.75667,9.46421 -2.1856,-12.70723 -11.70696,-5.40348 11.40991,-6.00538 1.52137,-12.80375 9.23731,8.99571 12.64721,-2.50968 -5.70093,11.56503 z"
       inkscape:transform-center-x="0.30611994"
       inkscape:transform-center-y="0.66055734" />
    <path
       sodipodi:type="spiral"
       style="opacity:0.5;fill:none;fill-opacity:1;fill-rule:evenodd;stroke:#b3b3b3;stroke-width:1px;stroke-linecap:butt;stroke-linejoin:miter;stroke-opacity:0.78431374"
       id="path4176"
       sodipodi:cx="574"
       sodipodi:cy="151.36218"
       sodipodi:expansion="1"
       sodipodi:revolution="3"
       sodipodi:radius="123.91125"
       sodipodi:argument="-21.869797"
       sodipodi:t0="0"
       d="m 574,151.36218 c -6.16702,-0.75207 -2.02881,-8.68407 1.25,-10.25 8.88537,-4.24356 17.69062,4.50027 19.25,12.75 2.78936,14.75684 -10.35401,27.02745 -24.24999,28.25 -20.39292,1.79414 -36.53835,-16.25007 -37.25001,-35.74999 -0.94853,-25.99032 22.15629,-46.11724 47.24999,-46.25 31.57786,-0.167075 55.73006,28.06616 55.25001,58.74998 -0.58142,37.16222 -33.97786,65.3623 -70.24999,64.25001 -42.74544,-1.3108 -75.00669,-39.89065 -73.25,-81.74998 2.02815,-48.32826 45.80416,-84.65919 93.24997,-82.250011 53.91094,2.737462 94.31737,51.718221 91.25001,104.749971 -3.44111,59.49362 -57.63266,103.97968 -116.24997,100.25001 -65.07632,-4.14064 -113.64509,-63.5474 -109.25001,-127.74996" />
    <path
       sodipodi:type="spiral"
       style="fill:none;fill-rule:evenodd;stroke:#999999;stroke-width:1px;stroke-linecap:butt;stroke-linejoin:miter;stroke-opacity:0.78431374;opacity:0.5"
       id="path4178"
       sodipodi:cx="-154.15471"
       sodipodi:cy="730.36218"
       sodipodi:expansion="1"
       sodipodi:revolution="4.3579965"
       sodipodi:radius="53.905415"
       sodipodi:argument="-17.523739"
       sodipodi:t0="0.091785304"
       d="m -157.9469,727.18425 c 1.20997,-3.66576 5.80481,-4.53548 8.95634,-2.98438 4.91045,2.41681 5.95143,8.82683 3.36828,13.31267 -3.55488,6.17332 -11.86872,7.38848 -17.669,3.75219 -7.44636,-4.66826 -8.8357,-14.91909 -4.13609,-22.02532 5.7702,-8.72508 17.97395,-10.28856 26.38165,-4.52001 10.00719,6.86598 11.74484,21.03153 4.90391,30.73798 -7.95804,11.2915 -24.09086,13.20337 -35.09431,5.28782 -12.57727,-9.04772 -14.66343,-27.1514 -5.67172,-39.45064 10.13575,-13.8641 30.21281,-16.1246 43.80696,-6.05563 15.1517,11.22262 17.58659,33.27488 6.43954,48.16329 -12.30863,16.43987 -36.33744,19.0492 -52.51962,6.82345 -17.72848,-13.39399 -20.51228,-39.4004 -7.20736,-56.87595 14.47885,-19.01745 42.46366,-21.97575 61.23228,-7.59126 20.3067,15.56329 23.43954,45.52717 7.97518,65.5886 -16.64742,21.59618 -48.5909,24.90357 -69.94494,8.35909 -18.63414,-14.4372 -25.01792,-40.3585 -15.94627,-61.99095"
       transform="scale(-1,1)" />
  </g>
</svg>
