<?xml version="1.0" encoding="UTF-8" standalone="no"?>
<!-- Created with Inkscape (http://www.inkscape.org/) -->

<svg
   xmlns:dc="http://purl.org/dc/elements/1.1/"
   xmlns:cc="http://creativecommons.org/ns#"
   xmlns:rdf="http://www.w3.org/1999/02/22-rdf-syntax-ns#"
   xmlns:svg="http://www.w3.org/2000/svg"
   xmlns="http://www.w3.org/2000/svg"
   xmlns:sodipodi="http://sodipodi.sourceforge.net/DTD/sodipodi-0.dtd"
   xmlns:inkscape="http://www.inkscape.org/namespaces/inkscape"
   width="800"
   height="1200"
   viewBox="0 0 800.00001 1200"
   id="svg2"
   version="1.1"
   inkscape:version="0.91 r13725"
   sodipodi:docname="back_6.svg"
   inkscape:export-filename="D:\Git\StarBinder\StarBinder.LevelEditor\Levels\Graphics\back_6.png"
   inkscape:export-xdpi="90"
   inkscape:export-ydpi="90">
  <defs
     id="defs4" />
  <sodipodi:namedview
     id="base"
     pagecolor="#ffffff"
     bordercolor="#666666"
     borderopacity="1.0"
     inkscape:pageopacity="0.0"
     inkscape:pageshadow="2"
     inkscape:zoom="0.5"
     inkscape:cx="247.65009"
     inkscape:cy="404.12461"
     inkscape:document-units="px"
     inkscape:current-layer="layer1"
     showgrid="false"
     units="px"
     inkscape:window-width="1920"
     inkscape:window-height="1017"
     inkscape:window-x="-8"
     inkscape:window-y="-8"
     inkscape:window-maximized="1" />
  <metadata
     id="metadata7">
    <rdf:RDF>
      <cc:Work
         rdf:about="">
        <dc:format>image/svg+xml</dc:format>
        <dc:type
           rdf:resource="http://purl.org/dc/dcmitype/StillImage" />
        <dc:title></dc:title>
      </cc:Work>
    </rdf:RDF>
  </metadata>
  <g
     inkscape:label="Layer 1"
     inkscape:groupmode="layer"
     id="layer1"
     transform="translate(0,147.63784)">
    <rect
       style="fill:#1a1a1a"
       id="rect3336"
       width="800"
       height="1200"
       x="0"
       y="-147.63783"
       inkscape:export-xdpi="90"
       inkscape:export-ydpi="90" />
    <rect
       style="opacity:0.5;fill:#8b8b8b;fill-opacity:0.37647059"
       id="rect3354"
       width="94.252937"
       height="2.0957906"
       x="358.94208"
       y="33.148174"
       transform="matrix(0.85371199,0.52074546,0.22355999,-0.97469017,0,0)" />
    <path
       sodipodi:type="star"
       style="opacity:0.5;fill:#8b8b8b;fill-opacity:0.37647059"
       id="path3338"
       sodipodi:sides="5"
       sodipodi:cx="220"
       sodipodi:cy="-13.352134"
       sodipodi:r1="58.901508"
       sodipodi:r2="17.670452"
       sodipodi:arg1="0.68231655"
       sodipodi:arg2="1.3106351"
       inkscape:flatsided="false"
       inkscape:rounded="0"
       inkscape:randomized="0"
       d="M 265.71429,23.790723 224.54548,3.7236815 198.80154,41.602509 l 6.36303,-45.3549147 -43.98023,-12.7787473 45.10137,-7.963838 -1.43732,-45.776528 21.51115,40.432993 43.09191,-15.512703 -31.80675,32.952801 z"
       inkscape:transform-center-x="2.3795155"
       inkscape:transform-center-y="-1.1326548"
       transform="matrix(-5.3248467e-4,0.57700541,0.60515852,9.1231054e-4,294.75876,7.85494)" />
    <path
       sodipodi:type="star"
       style="opacity:0.5;fill:#8b8b8b;fill-opacity:0.37647059"
       id="path3340"
       sodipodi:sides="6"
       sodipodi:cx="328.57144"
       sodipodi:cy="26.647865"
       sodipodi:r1="31.943829"
       sodipodi:r2="9.583149"
       sodipodi:arg1="1.1071487"
       sodipodi:arg2="1.6307475"
       inkscape:flatsided="false"
       inkscape:rounded="0"
       inkscape:randomized="0"
       d="m 342.85716,55.219294 -14.8599,-19.005496 -17.02654,17.091574 9.02929,-22.371792 -23.31501,-6.199637 23.88919,-3.366296 -6.28846,-23.2912103 14.85989,19.0054963 17.02655,-17.09157406 -9.0293,22.37179206 23.31501,6.199637 -23.88919,3.366295 z"
       inkscape:transform-center-x="1.1412215"
       inkscape:transform-center-y="1.8647717"
       transform="matrix(0.18720755,0.98232038,0.98232038,-0.18720755,324.6133,-101.56967)" />
    <path
       sodipodi:type="star"
       style="opacity:0.5;fill:#8b8b8b;fill-opacity:0.37647059"
       id="path3342"
       sodipodi:sides="6"
       sodipodi:cx="126.71429"
       sodipodi:cy="221.93359"
       sodipodi:r1="24.578072"
       sodipodi:r2="9.8312292"
       sodipodi:arg1="0.62024949"
       sodipodi:arg2="1.1438483"
       inkscape:flatsided="false"
       inkscape:rounded="0"
       inkscape:randomized="0"
       d="m 146.71429,236.21931 -15.92894,-5.337 -6.44285,15.51465 -3.3425,-16.46337 -16.6575,2.17765 12.58644,-11.12636 -10.21465,-13.337 15.92894,5.337 6.44285,-15.51465 3.34249,16.46336 16.65751,-2.17765 -12.58645,11.12637 z"
       inkscape:transform-center-x="1.3616095"
       inkscape:transform-center-y="-1.0140133"
       transform="matrix(0.18720755,0.98232038,0.98232038,-0.18720755,298.6133,50.43033)" />
    <path
       sodipodi:type="star"
       style="opacity:0.5;fill:#8b8b8b;fill-opacity:0.37647059"
       id="path3344"
       sodipodi:sides="5"
       sodipodi:cx="540"
       sodipodi:cy="958.07654"
       sodipodi:r1="36.140316"
       sodipodi:r2="10.842095"
       sodipodi:arg1="-1.8925469"
       sodipodi:arg2="-1.2642284"
       inkscape:flatsided="false"
       inkscape:rounded="0"
       inkscape:randomized="0"
       d="m 528.57143,923.79082 14.70059,23.94914 25.80401,-11.12751 -18.23425,21.38178 18.55677,21.10249 -25.96998,-10.73447 -14.3353,24.16956 2.18392,-28.01605 -27.41646,-6.16487 27.31971,-6.58041 z"
       inkscape:transform-center-x="2.2648057"
       inkscape:transform-center-y="-2.4974336"
       transform="matrix(0.65292536,0.75742226,-0.75742226,0.65292536,1014.9538,-739.80755)" />
    <rect
       style="opacity:0.5;fill:#8b8b8b;fill-opacity:0.37647059"
       id="rect4166"
       width="169.33395"
       height="1.4123869"
       x="-908.44531"
       y="-630.65613"
       transform="matrix(-0.96179794,-0.27376033,0.25308997,-0.96744275,0,0)" />
    <path
       sodipodi:type="star"
       style="opacity:0.5;fill:#8b8b8b;fill-opacity:0.37647059"
       id="path4162"
       sodipodi:sides="7"
       sodipodi:cx="202"
       sodipodi:cy="589.36218"
       sodipodi:r1="34.713112"
       sodipodi:r2="17.356556"
       sodipodi:arg1="0.84654633"
       sodipodi:arg2="1.2953453"
       inkscape:flatsided="false"
       inkscape:rounded="0"
       inkscape:randomized="0"
       d="m 225,615.36218 -18.27935,-9.29774 -10.708,17.4906 -4.12772,-20.08841 -20.35104,2.53335 13.13217,-15.7521 -14.66932,-14.33156 20.50326,0.44586 2.05869,-20.40452 12.43499,16.30809 17.23647,-11.11246 -4.9971,19.88999 19.43484,6.54751 -18.66626,8.49433 z"
       inkscape:transform-center-x="1.036103"
       inkscape:transform-center-y="0.66733385"
       transform="matrix(-0.01306117,-0.52341412,0.50279548,-0.01254666,435.5584,975.48748)" />
    <path
       sodipodi:type="star"
       style="opacity:0.5;fill:#8b8b8b;fill-opacity:0.37647059"
       id="path3342-6"
       sodipodi:sides="6"
       sodipodi:cx="126.71429"
       sodipodi:cy="221.93359"
       sodipodi:r1="24.578072"
       sodipodi:r2="9.8312292"
       sodipodi:arg1="0.62024949"
       sodipodi:arg2="1.1438483"
       inkscape:flatsided="false"
       inkscape:rounded="0"
       inkscape:randomized="0"
       d="m 146.71429,236.21931 -15.92894,-5.337 -6.44285,15.51465 -3.3425,-16.46337 -16.6575,2.17765 12.58644,-11.12636 -10.21465,-13.337 15.92894,5.337 6.44285,-15.51465 3.34249,16.46336 16.65751,-2.17765 -12.58645,11.12637 z"
       inkscape:transform-center-x="-1.6570583"
       inkscape:transform-center-y="0.36923703"
       transform="matrix(-0.86626388,0.49958672,-0.49958672,-0.86626388,749.7677,933.50218)" />
    <path
       sodipodi:type="star"
       style="opacity:0.5;fill:#e6e6e6;fill-opacity:0.37647059;fill-rule:nonzero;stroke:none;stroke-width:2;stroke-miterlimit:4;stroke-dasharray:none;stroke-dashoffset:0;stroke-opacity:0.78431373"
       id="path4175"
       sodipodi:sides="4"
       sodipodi:cx="238"
       sodipodi:cy="488.36212"
       sodipodi:r1="13.341664"
       sodipodi:r2="4.0024991"
       sodipodi:arg1="1.3439975"
       sodipodi:arg2="2.1293957"
       inkscape:flatsided="false"
       inkscape:rounded="0"
       inkscape:randomized="0"
       d="M 241,501.36212 235.87868,491.75623 225,491.36212 234.60589,486.2408 235,475.36212 l 5.12132,9.60589 10.87868,0.39411 -9.60589,5.12132 z"
       inkscape:transform-center-x="-0.92705099"
       inkscape:transform-center-y="0.35971166" />
    <path
       sodipodi:type="star"
       style="opacity:0.5;fill:#e6e6e6;fill-opacity:0.37647059;fill-rule:nonzero;stroke:none;stroke-width:2;stroke-miterlimit:4;stroke-dasharray:none;stroke-dashoffset:0;stroke-opacity:0.78431373"
       id="path4177"
       sodipodi:sides="7"
       sodipodi:cx="210"
       sodipodi:cy="908.36212"
       sodipodi:r1="10.221546"
       sodipodi:r2="25.553865"
       sodipodi:arg1="1.0370881"
       sodipodi:arg2="1.4858871"
       inkscape:flatsided="false"
       inkscape:rounded="0"
       inkscape:randomized="0"
       d="m 215.2,917.16212 -3.03285,16.66181 -5.80512,-15.90957 -14.91767,8.01729 8.81917,-14.45809 -15.56919,-6.66441 16.80244,-2.11936 L 197,886.36212 l 12.13314,11.81528 9.96179,-13.69586 -1.67267,16.85277 16.91893,-0.75079 -14.21893,9.19979 11.13578,12.75964 z" />
    <path
       inkscape:transform-center-y="0.35971166"
       inkscape:transform-center-x="-0.92705099"
       d="M 666,26.362122 660.87868,16.756234 650,16.362121 659.60589,11.240801 660,0.36212127 665.12132,9.9680093 676,10.362122 l -9.60589,5.12132 z"
       inkscape:randomized="0"
       inkscape:rounded="0"
       inkscape:flatsided="false"
       sodipodi:arg2="2.1293957"
       sodipodi:arg1="1.3439975"
       sodipodi:r2="4.0024991"
       sodipodi:r1="13.341664"
       sodipodi:cy="13.362122"
       sodipodi:cx="663"
       sodipodi:sides="4"
       id="path5289"
       style="opacity:0.5;fill:#e6e6e6;fill-opacity:0.37647059;fill-rule:nonzero;stroke:none;stroke-width:2;stroke-miterlimit:4;stroke-dasharray:none;stroke-dashoffset:0;stroke-opacity:0.78431373"
       sodipodi:type="star" />
    <rect
       transform="matrix(-0.68572192,0.72786362,-0.4732203,-0.88094412,0,0)"
       y="-317.39941"
       x="-164.6763"
       height="2.0957906"
       width="94.252937"
       id="rect5291"
       style="opacity:0.5;fill:#8b8b8b;fill-opacity:0.37647059" />
    <path
       sodipodi:type="star"
       style="opacity:0.08699999;fill:#e6e6e6;fill-opacity:1;fill-rule:nonzero;stroke:none;stroke-width:2;stroke-miterlimit:4;stroke-dasharray:none;stroke-dashoffset:0;stroke-opacity:0.25098039"
       id="path5293"
       sodipodi:sides="5"
       sodipodi:cx="134"
       sodipodi:cy="9.3621597"
       sodipodi:r1="33.015148"
       sodipodi:r2="9.9045448"
       sodipodi:arg1="0.61320735"
       sodipodi:arg2="1.2415259"
       inkscape:flatsided="false"
       inkscape:rounded="0"
       inkscape:randomized="0"
       d="M 161,28.36216 137.20266,18.734618 124.27338,40.912009 126.07594,15.304321 100.98862,9.8610386 125.9,3.6621593 123.32446,-21.879365 136.91798,-0.10279526 160.41353,-10.445043 143.90341,9.2124962 Z"
       transform="matrix(0.54395297,0.65319485,-0.64605914,0.53801066,112.38767,159.83163)" />
    <rect
       transform="matrix(-0.84449009,0.53557119,-0.21542697,-0.97651995,0,0)"
       y="-431.00839"
       x="-504.35919"
       height="2.2555315"
       width="98.814064"
       id="rect4159"
       style="opacity:0.5;fill:#8b8b8b;fill-opacity:0.37647059" />
    <rect
       style="opacity:0.5;fill:#8b8b8b;fill-opacity:0.37647059"
       id="rect4161"
       width="118.33788"
       height="2.857017"
       x="722.53906"
       y="479.43076"
       transform="matrix(0.53783639,0.84304924,0.34184519,-0.93975628,0,0)" />
    <path
       sodipodi:type="star"
       style="opacity:0.5;fill:#e6e6e6;fill-opacity:0.37647059;fill-rule:nonzero;stroke:none;stroke-width:2;stroke-miterlimit:4;stroke-dasharray:none;stroke-dashoffset:0;stroke-opacity:0.78431373"
       id="path4163"
       sodipodi:sides="5"
       sodipodi:cx="172"
       sodipodi:cy="-37.637878"
       sodipodi:r1="13.341664"
       sodipodi:r2="4.0024991"
       sodipodi:arg1="1.3439975"
       sodipodi:arg2="1.972316"
       inkscape:flatsided="false"
       inkscape:rounded="0"
       inkscape:randomized="0"
       d="m 175,-24.637878 -4.56425,-9.315828 -9.87243,3.186218 7.44944,-7.219606 -6.08102,-8.40465 9.16826,4.853866 6.11416,-8.380577 -1.78316,10.219459 9.85979,3.225169 -10.27031,1.462108 z"
       inkscape:transform-center-x="-0.92705099"
       inkscape:transform-center-y="0.35971166" />
    <path
       sodipodi:type="star"
       style="opacity:0.5;fill:#b3b3b3;fill-opacity:0.25098039;fill-rule:nonzero;stroke:#4d4d4d;stroke-width:2;stroke-linecap:round;stroke-linejoin:round;stroke-miterlimit:4;stroke-dasharray:none;stroke-dashoffset:0;stroke-opacity:0.37647059"
       id="path4165"
       sodipodi:sides="5"
       sodipodi:cx="496"
       sodipodi:cy="604.36218"
       sodipodi:r1="19.104973"
       sodipodi:r2="5.731492"
       sodipodi:arg1="0.82241828"
       sodipodi:arg2="1.4507368"
       inkscape:flatsided="false"
       inkscape:rounded="0"
       inkscape:randomized="0"
       d="m 509,618.36218 -12.31353,-8.30976 -9.98404,10.99973 4.09797,-14.27872 -13.54661,-6.09628 14.84621,-0.51497 1.61177,-14.76744 5.0775,13.96045 14.54274,-3.0305 -11.70815,9.143 z"
       inkscape:transform-center-x="0.70710116"
       inkscape:transform-center-y="-1.1387368" />
  </g>
</svg>
