<?xml version="1.0" encoding="UTF-8" standalone="no"?>
<!-- Created with Inkscape (http://www.inkscape.org/) -->

<svg
   xmlns:dc="http://purl.org/dc/elements/1.1/"
   xmlns:cc="http://creativecommons.org/ns#"
   xmlns:rdf="http://www.w3.org/1999/02/22-rdf-syntax-ns#"
   xmlns:svg="http://www.w3.org/2000/svg"
   xmlns="http://www.w3.org/2000/svg"
   xmlns:sodipodi="http://sodipodi.sourceforge.net/DTD/sodipodi-0.dtd"
   xmlns:inkscape="http://www.inkscape.org/namespaces/inkscape"
   width="800"
   height="1200"
   viewBox="0 0 800.00001 1200"
   id="svg2"
   version="1.1"
   inkscape:version="0.91 r13725"
   sodipodi:docname="back2.svg">
  <defs
     id="defs4" />
  <sodipodi:namedview
     id="base"
     pagecolor="#ffffff"
     bordercolor="#666666"
     borderopacity="1.0"
     inkscape:pageopacity="0.0"
     inkscape:pageshadow="2"
     inkscape:zoom="0.5"
     inkscape:cx="340.82623"
     inkscape:cy="742.45483"
     inkscape:document-units="px"
     inkscape:current-layer="layer1"
     showgrid="false"
     units="px"
     inkscape:window-width="1920"
     inkscape:window-height="1017"
     inkscape:window-x="-8"
     inkscape:window-y="-8"
     inkscape:window-maximized="1" />
  <metadata
     id="metadata7">
    <rdf:RDF>
      <cc:Work
         rdf:about="">
        <dc:format>image/svg+xml</dc:format>
        <dc:type
           rdf:resource="http://purl.org/dc/dcmitype/StillImage" />
        <dc:title></dc:title>
      </cc:Work>
    </rdf:RDF>
  </metadata>
  <g
     inkscape:label="Layer 1"
     inkscape:groupmode="layer"
     id="layer1"
     transform="translate(0,147.63784)">
    <rect
       style="fill:#1a1a1a"
       id="rect3336"
       width="800"
       height="1200"
       x="0"
       y="-147.63783"
       inkscape:export-xdpi="90"
       inkscape:export-ydpi="90" />
    <rect
       style="opacity:0.5;fill:#8b8b8b;fill-opacity:0.37647059"
       id="rect3352"
       width="225.28262"
       height="3.4457383"
       x="-187.65932"
       y="456.56525"
       transform="matrix(-0.54960076,0.83542744,0.83976814,0.54294518,0,0)" />
    <rect
       style="opacity:0.5;fill:#8b8b8b;fill-opacity:0.37647059"
       id="rect3354"
       width="116.88162"
       height="2.6266811"
       x="29.14155"
       y="-382.89636"
       transform="matrix(0.98917715,-0.14672614,-0.46169762,-0.88703738,0,0)" />
    <rect
       style="opacity:0.5;fill:#8b8b8b;fill-opacity:0.37647059"
       id="rect4158"
       width="132.63895"
       height="2.8705649"
       x="623.99622"
       y="803.65753"
       transform="matrix(0.94998957,0.31228164,-0.3839031,0.92337339,0,0)" />
    <rect
       style="opacity:0.5;fill:#8b8b8b;fill-opacity:0.37647059"
       id="rect4160"
       width="2.1367724"
       height="128.74695"
       x="-282.24963"
       y="705.9516"
       transform="matrix(0.70142075,-0.71274745,0.52937887,0.84838553,0,0)" />
    <path
       sodipodi:type="star"
       style="opacity:0.5;fill:#8b8b8b;fill-opacity:0.37647059"
       id="path3338"
       sodipodi:sides="5"
       sodipodi:cx="220"
       sodipodi:cy="-13.352134"
       sodipodi:r1="58.901508"
       sodipodi:r2="23.560602"
       sodipodi:arg1="0.68231655"
       sodipodi:arg2="1.3106351"
       inkscape:flatsided="false"
       inkscape:rounded="0"
       inkscape:randomized="0"
       d="M 265.71429,23.790723 226.06064,9.4156192 198.80154,41.602509 200.21942,-0.55249669 161.18434,-16.531153 l 40.52995,-11.678123 3.1341,-42.062243 23.631,34.937529 40.97206,-10.017239 -25.92519,33.270703 z"
       inkscape:transform-center-x="2.7826477"
       inkscape:transform-center-y="-0.72572737"
       transform="matrix(0.11804248,0.61939559,0.64865782,-0.12361918,153.31466,194.39658)" />
    <path
       sodipodi:type="star"
       style="opacity:0.5;fill:#8b8b8b;fill-opacity:0.37647059"
       id="path3340"
       sodipodi:sides="4"
       sodipodi:cx="328.57144"
       sodipodi:cy="26.647865"
       sodipodi:r1="31.943829"
       sodipodi:r2="9.583149"
       sodipodi:arg1="1.1071487"
       sodipodi:arg2="1.8925469"
       inkscape:flatsided="false"
       inkscape:rounded="0"
       inkscape:randomized="0"
       d="M 342.85716,55.219294 325.54098,35.739239 300.00001,40.93358 319.48007,23.617407 314.28573,-1.9235633 331.6019,17.556492 357.14287,12.36215 337.66281,29.678323 Z"
       inkscape:transform-center-x="1.1412215"
       inkscape:transform-center-y="1.8647717"
       transform="matrix(0.18720755,0.98232038,0.98232038,-0.18720755,261.6133,-12.56967)" />
    <path
       sodipodi:type="star"
       style="opacity:0.5;fill:#8b8b8b;fill-opacity:0.37647059"
       id="path3342"
       sodipodi:sides="6"
       sodipodi:cx="126.71429"
       sodipodi:cy="221.93359"
       sodipodi:r1="24.578072"
       sodipodi:r2="9.8312292"
       sodipodi:arg1="0.62024949"
       sodipodi:arg2="1.1438483"
       inkscape:flatsided="false"
       inkscape:rounded="0"
       inkscape:randomized="0"
       d="m 146.71429,236.21931 -15.92894,-5.337 -6.44285,15.51465 -3.3425,-16.46337 -16.6575,2.17765 12.58644,-11.12636 -10.21465,-13.337 15.92894,5.337 6.44285,-15.51465 3.34249,16.46336 16.65751,-2.17765 -12.58645,11.12637 z"
       inkscape:transform-center-x="1.3616095"
       inkscape:transform-center-y="-1.0140133"
       transform="matrix(0.18720755,0.98232038,0.98232038,-0.18720755,261.6133,-12.56967)" />
    <path
       sodipodi:type="star"
       style="opacity:0.5;fill:#8b8b8b;fill-opacity:0.37647059"
       id="path3344"
       sodipodi:sides="7"
       sodipodi:cx="540"
       sodipodi:cy="958.07654"
       sodipodi:r1="36.140316"
       sodipodi:r2="14.456126"
       sodipodi:arg1="-1.8925469"
       sodipodi:arg2="-1.4437479"
       inkscape:flatsided="false"
       inkscape:rounded="0"
       inkscape:randomized="0"
       d="m 528.57143,923.79082 13.26026,19.94611 17.84836,-15.9724 -7.32685,22.80348 23.616,3.99578 -22.3967,8.48938 11.6003,20.95506 -20.60137,-12.21741 -9.15066,22.13475 -3.29279,-23.72423 -23.01098,6.64652 16.49532,-17.36622 -19.54357,-13.84668 23.86213,2.0689 z"
       inkscape:transform-center-x="2.2648057"
       inkscape:transform-center-y="-2.4974336"
       transform="matrix(0.65292536,0.75742226,-0.75742226,0.65292536,636.95384,-107.80755)" />
    <path
       sodipodi:type="star"
       style="opacity:0.5;fill:#8b8b8b;fill-opacity:0.37647059"
       id="path3346"
       sodipodi:sides="5"
       sodipodi:cx="694.28571"
       sodipodi:cy="869.50507"
       sodipodi:r1="20.203051"
       sodipodi:r2="10.101525"
       sodipodi:arg1="-0.78539816"
       sodipodi:arg2="-0.15707963"
       inkscape:flatsided="false"
       inkscape:rounded="0"
       inkscape:randomized="0"
       d="m 708.57142,855.21935 -4.30856,12.70549 8.0239,10.75222 -13.41506,-0.17147 -7.74645,10.95379 -3.9824,-12.81146 -12.81146,-3.9824 10.95379,-7.74645 -0.17147,-13.41505 10.75222,8.02389 z"
       transform="matrix(0.65292536,0.75742226,-0.75742226,0.65292536,636.95384,-107.80755)" />
    <path
       sodipodi:type="star"
       style="opacity:0.5;fill:#8b8b8b;fill-opacity:0.37647059"
       id="path3348"
       sodipodi:sides="4"
       sodipodi:cx="474.28571"
       sodipodi:cy="803.79077"
       sodipodi:r1="16.659863"
       sodipodi:r2="4.9979591"
       sodipodi:arg1="0.5404195"
       sodipodi:arg2="1.3258177"
       inkscape:flatsided="false"
       inkscape:rounded="0"
       inkscape:randomized="0"
       d="m 488.57142,812.3622 -13.07353,-3.7227 -9.78361,9.43699 3.72269,-13.07354 -9.43698,-9.78361 13.07353,3.7227 9.78361,-9.43698 -3.72269,13.07353 z"
       transform="matrix(0.65292536,0.75742226,-0.75742226,0.65292536,463.95384,-94.80755)" />
    <rect
       style="opacity:0.5;fill:#8b8b8b;fill-opacity:0.37647059"
       id="rect4166"
       width="182.85934"
       height="1.5462193"
       x="-1101.5073"
       y="199.56529"
       transform="matrix(-0.49970127,-0.86619781,0.85174455,-0.52395726,0,0)" />
    <path
       sodipodi:type="star"
       style="opacity:0.5;fill:#8b8b8b;fill-opacity:0.37647059"
       id="path4162"
       sodipodi:sides="7"
       sodipodi:cx="202"
       sodipodi:cy="589.36218"
       sodipodi:r1="34.713112"
       sodipodi:r2="17.356556"
       sodipodi:arg1="0.84654633"
       sodipodi:arg2="1.2953453"
       inkscape:flatsided="false"
       inkscape:rounded="0"
       inkscape:randomized="0"
       d="m 225,615.36218 -18.27935,-9.29774 -10.708,17.4906 -4.12772,-20.08841 -20.35104,2.53335 13.13217,-15.7521 -14.66932,-14.33156 20.50326,0.44586 2.05869,-20.40452 12.43499,16.30809 17.23647,-11.11246 -4.9971,19.88999 19.43484,6.54751 -18.66626,8.49433 z"
       inkscape:transform-center-x="1.036103"
       inkscape:transform-center-y="0.66733385"
       transform="matrix(-0.01306117,-0.52341412,0.50279548,-0.01254666,435.5584,975.48748)" />
    <path
       sodipodi:type="star"
       style="opacity:0.5;fill:#8b8b8b;fill-opacity:0.37647059"
       id="path4164"
       sodipodi:sides="5"
       sodipodi:cx="557"
       sodipodi:cy="388.36215"
       sodipodi:r1="19.416489"
       sodipodi:r2="9.7082443"
       sodipodi:arg1="0.60228735"
       sodipodi:arg2="1.2306059"
       inkscape:flatsided="false"
       inkscape:rounded="0"
       inkscape:randomized="0"
       d="m 573,399.36215 -12.76068,-1.84812 -8.75667,9.46421 -2.1856,-12.70723 -11.70696,-5.40348 11.40991,-6.00538 1.52137,-12.80375 9.23731,8.99571 12.64721,-2.50968 -5.70093,11.56503 z"
       inkscape:transform-center-x="-0.39219488"
       inkscape:transform-center-y="0.081716619"
       transform="matrix(-0.01306117,-0.52341412,0.50279548,-0.01254666,435.5584,975.48748)" />
    <path
       sodipodi:type="star"
       style="opacity:0.5;fill:#8b8b8b;fill-opacity:0.37647059"
       id="path3342-6"
       sodipodi:sides="6"
       sodipodi:cx="126.71429"
       sodipodi:cy="221.93359"
       sodipodi:r1="24.578072"
       sodipodi:r2="9.8312292"
       sodipodi:arg1="0.62024949"
       sodipodi:arg2="1.1438483"
       inkscape:flatsided="false"
       inkscape:rounded="0"
       inkscape:randomized="0"
       d="m 146.71429,236.21931 -15.92894,-5.337 -6.44285,15.51465 -3.3425,-16.46337 -16.6575,2.17765 12.58644,-11.12636 -10.21465,-13.337 15.92894,5.337 6.44285,-15.51465 3.34249,16.46336 16.65751,-2.17765 -12.58645,11.12637 z"
       inkscape:transform-center-x="-1.6570583"
       inkscape:transform-center-y="0.36923703"
       transform="matrix(-0.86626388,0.49958672,-0.49958672,-0.86626388,749.7677,933.50218)" />
    <rect
       transform="matrix(-0.48233368,0.87598757,-0.86711966,-0.49809989,0,0)"
       y="-856.88477"
       x="462.55325"
       height="2.3744345"
       width="155.63786"
       id="rect4165"
       style="opacity:0.5;fill:#8b8b8b;fill-opacity:0.37647059" />
    <path
       sodipodi:type="star"
       style="opacity:0.5;fill:#e6e6e6;fill-opacity:0.37647059;fill-rule:nonzero;stroke:none;stroke-width:2;stroke-miterlimit:4;stroke-dasharray:none;stroke-dashoffset:0;stroke-opacity:0.78431373"
       id="path4173"
       sodipodi:sides="5"
       sodipodi:cx="416"
       sodipodi:cy="594.36217"
       sodipodi:r1="17.888544"
       sodipodi:r2="7.1554174"
       sodipodi:arg1="1.1071487"
       sodipodi:arg2="1.7354672"
       inkscape:flatsided="false"
       inkscape:rounded="0"
       inkscape:randomized="0"
       d="m 424,610.36218 -9.17297,-8.94138 -11.5718,5.49411 5.66915,-11.48705 -8.80108,-9.30767 12.6767,1.84199 6.13243,-11.24655 2.16548,12.62546 12.59113,2.35691 -11.33836,5.96098 z"
       inkscape:transform-center-x="-0.90617012"
       inkscape:transform-center-y="-0.82327697" />
    <path
       sodipodi:type="star"
       style="opacity:0.5;fill:#e6e6e6;fill-opacity:0.37647059;fill-rule:nonzero;stroke:none;stroke-width:2;stroke-miterlimit:4;stroke-dasharray:none;stroke-dashoffset:0;stroke-opacity:0.78431373"
       id="path4175"
       sodipodi:sides="4"
       sodipodi:cx="170"
       sodipodi:cy="74.36216"
       sodipodi:r1="13.341664"
       sodipodi:r2="4.0024991"
       sodipodi:arg1="1.3439975"
       sodipodi:arg2="2.1293957"
       inkscape:flatsided="false"
       inkscape:rounded="0"
       inkscape:randomized="0"
       d="M 173,87.36216 167.87868,77.756272 157,77.36216 166.60589,72.240839 167,61.362159 172.12132,70.968047 183,71.36216 l -9.60589,5.12132 z"
       inkscape:transform-center-x="-0.92705099"
       inkscape:transform-center-y="0.35971166" />
    <path
       sodipodi:type="star"
       style="opacity:0.5;fill:#e6e6e6;fill-opacity:0.37647059;fill-rule:nonzero;stroke:none;stroke-width:2;stroke-miterlimit:4;stroke-dasharray:none;stroke-dashoffset:0;stroke-opacity:0.78431373"
       id="path4177"
       sodipodi:sides="7"
       sodipodi:cx="657"
       sodipodi:cy="417.36215"
       sodipodi:r1="10.221546"
       sodipodi:r2="25.553865"
       sodipodi:arg1="1.0370881"
       sodipodi:arg2="1.4858871"
       inkscape:flatsided="false"
       inkscape:rounded="0"
       inkscape:randomized="0"
       d="m 662.2,426.16215 -3.03285,16.66181 -5.80512,-15.90957 -14.91767,8.01729 8.81917,-14.45809 -15.56919,-6.6644 16.80244,-2.11937 L 644,395.36215 l 12.13314,11.81528 9.96179,-13.69586 -1.67267,16.85277 16.91893,-0.75079 -14.21893,9.19979 11.13578,12.75964 z" />
    <path
       inkscape:transform-center-y="0.35971166"
       inkscape:transform-center-x="-0.92705099"
       d="M 115,231.36217 109.87868,221.75628 99,221.36217 108.60589,216.24085 109,205.36217 l 5.12132,9.60589 10.87868,0.39411 -9.60589,5.12132 z"
       inkscape:randomized="0"
       inkscape:rounded="0"
       inkscape:flatsided="false"
       sodipodi:arg2="2.1293957"
       sodipodi:arg1="1.3439975"
       sodipodi:r2="4.0024991"
       sodipodi:r1="13.341664"
       sodipodi:cy="218.36216"
       sodipodi:cx="112"
       sodipodi:sides="4"
       id="path4179"
       style="opacity:0.5;fill:#e6e6e6;fill-opacity:0.37647059;fill-rule:nonzero;stroke:none;stroke-width:2;stroke-miterlimit:4;stroke-dasharray:none;stroke-dashoffset:0;stroke-opacity:0.78431373"
       sodipodi:type="star" />
    <path
       sodipodi:type="star"
       style="opacity:0.5;fill:#e6e6e6;fill-opacity:0.37647059;fill-rule:nonzero;stroke:none;stroke-width:2;stroke-miterlimit:4;stroke-dasharray:none;stroke-dashoffset:0;stroke-opacity:0.78431373"
       id="path4181"
       sodipodi:sides="4"
       sodipodi:cx="338"
       sodipodi:cy="85.36216"
       sodipodi:r1="13.341664"
       sodipodi:r2="4.0024991"
       sodipodi:arg1="1.3439975"
       sodipodi:arg2="2.1293957"
       inkscape:flatsided="false"
       inkscape:rounded="0"
       inkscape:randomized="0"
       d="M 341,98.36216 335.87868,88.756272 325,88.36216 334.60589,83.240839 335,72.362159 340.12132,81.968047 351,82.36216 l -9.60589,5.12132 z"
       inkscape:transform-center-x="-0.92705099"
       inkscape:transform-center-y="0.35971166" />
    <rect
       transform="matrix(0.59568779,-0.80321607,0.85468707,0.51914353,0,0)"
       y="910.24146"
       x="-386.56259"
       height="1.0124226"
       width="116.64043"
       id="rect4183"
       style="opacity:0.5;fill:#8b8b8b;fill-opacity:0.37647059" />
    <ellipse
       style="opacity:0.5;fill:#1a1a1a;fill-opacity:0.37647059;fill-rule:nonzero;stroke:none;stroke-width:2;stroke-miterlimit:4;stroke-dasharray:none;stroke-dashoffset:0;stroke-opacity:0.78431373"
       id="path4187"
       cx="197.5"
       cy="250.36217"
       rx="124.5"
       ry="194" />
    <ellipse
       style="opacity:0.08699999;fill:none;fill-opacity:0.37647059;fill-rule:nonzero;stroke:#cccccc;stroke-width:7.63041353;stroke-miterlimit:4;stroke-dasharray:none;stroke-dashoffset:0;stroke-opacity:0.25098039"
       id="path4189"
       cx="393.95782"
       cy="217.22585"
       rx="322.13135"
       ry="338.35223"
       transform="matrix(0.9728795,0.23131252,0.09541446,0.99543763,0,0)" />
    <ellipse
       transform="matrix(-0.9728795,0.23131252,-0.09541446,0.99543763,0,0)"
       ry="338.35223"
       rx="322.13135"
       cy="414.71777"
       cx="-455.93524"
       id="ellipse4191"
       style="opacity:0.08699999;fill:none;fill-opacity:0.37647059;fill-rule:nonzero;stroke:#cccccc;stroke-width:7.63041353;stroke-miterlimit:4;stroke-dasharray:none;stroke-dashoffset:0;stroke-opacity:0.25098039" />
  </g>
</svg>
