<?xml version="1.0" encoding="UTF-8" standalone="no"?>
<!-- Created with Inkscape (http://www.inkscape.org/) -->

<svg
   xmlns:dc="http://purl.org/dc/elements/1.1/"
   xmlns:cc="http://creativecommons.org/ns#"
   xmlns:rdf="http://www.w3.org/1999/02/22-rdf-syntax-ns#"
   xmlns:svg="http://www.w3.org/2000/svg"
   xmlns="http://www.w3.org/2000/svg"
   xmlns:sodipodi="http://sodipodi.sourceforge.net/DTD/sodipodi-0.dtd"
   xmlns:inkscape="http://www.inkscape.org/namespaces/inkscape"
   width="800"
   height="1200"
   viewBox="0 0 800.00001 1200"
   id="svg2"
   version="1.1"
   inkscape:version="0.91 r13725"
   sodipodi:docname="back1.svg">
  <defs
     id="defs4" />
  <sodipodi:namedview
     id="base"
     pagecolor="#ffffff"
     bordercolor="#666666"
     borderopacity="1.0"
     inkscape:pageopacity="0.0"
     inkscape:pageshadow="2"
     inkscape:zoom="1"
     inkscape:cx="148.32623"
     inkscape:cy="310.63863"
     inkscape:document-units="px"
     inkscape:current-layer="layer1"
     showgrid="false"
     units="px"
     inkscape:window-width="1920"
     inkscape:window-height="1017"
     inkscape:window-x="-8"
     inkscape:window-y="-8"
     inkscape:window-maximized="1" />
  <metadata
     id="metadata7">
    <rdf:RDF>
      <cc:Work
         rdf:about="">
        <dc:format>image/svg+xml</dc:format>
        <dc:type
           rdf:resource="http://purl.org/dc/dcmitype/StillImage" />
        <dc:title />
      </cc:Work>
    </rdf:RDF>
  </metadata>
  <g
     inkscape:label="Layer 1"
     inkscape:groupmode="layer"
     id="layer1"
     transform="translate(0,147.63784)">
    <rect
       style="fill:#1a1a1a"
       id="rect3336"
       width="800"
       height="1200"
       x="0"
       y="-147.63783"
       inkscape:export-xdpi="90"
       inkscape:export-ydpi="90" />
    <rect
       style="opacity:0.5;fill:#8b8b8b;fill-opacity:0.37647059"
       id="rect3352"
       width="225.28262"
       height="3.4457383"
       x="403.92746"
       y="124.62042"
       transform="matrix(0.54960076,0.83542744,-0.83976814,0.54294518,0,0)" />
    <rect
       style="opacity:0.5;fill:#8b8b8b;fill-opacity:0.37647059"
       id="rect3354"
       width="80.676888"
       height="2.6369655"
       x="244.33298"
       y="-571.26208"
       transform="matrix(-0.58954178,0.80773788,-0.81132311,-0.58459799,0,0)" />
    <rect
       style="opacity:0.5;fill:#8b8b8b;fill-opacity:0.37647059"
       id="rect4156"
       width="191.53033"
       height="2.9930208"
       x="863.20197"
       y="15.543885"
       transform="matrix(0.41650922,0.90913149,-0.9132916,0.40730633,0,0)" />
    <rect
       style="opacity:0.5;fill:#8b8b8b;fill-opacity:0.37647059"
       id="rect4158"
       width="132.63895"
       height="2.8705649"
       x="623.99622"
       y="803.65753"
       transform="matrix(0.94998957,0.31228164,-0.3839031,0.92337339,0,0)" />
    <rect
       style="opacity:0.5;fill:#8b8b8b;fill-opacity:0.37647059"
       id="rect4160"
       width="2.1367724"
       height="128.74695"
       x="713.01581"
       y="669.83099"
       transform="matrix(0.95286789,0.30338555,-0.51737687,0.85575766,0,0)" />
    <path
       sodipodi:type="star"
       style="opacity:0.5;fill:#8b8b8b;fill-opacity:0.37647059"
       id="path3338"
       sodipodi:sides="5"
       sodipodi:cx="220"
       sodipodi:cy="-13.352134"
       sodipodi:r1="58.901508"
       sodipodi:r2="23.560602"
       sodipodi:arg1="0.68231655"
       sodipodi:arg2="1.3106351"
       inkscape:flatsided="false"
       inkscape:rounded="0"
       inkscape:randomized="0"
       d="M 265.71429,23.790723 226.06064,9.4156192 198.80154,41.602509 200.21942,-0.55249669 161.18434,-16.531153 l 40.52995,-11.678123 3.1341,-42.062243 23.631,34.937529 40.97206,-10.017239 -25.92519,33.270703 z"
       inkscape:transform-center-x="-2.7826444"
       inkscape:transform-center-y="-0.72572737"
       transform="matrix(-0.11804248,0.61939559,-0.64865782,-0.12361918,354.57854,364.39658)" />
    <path
       sodipodi:type="star"
       style="opacity:0.5;fill:#8b8b8b;fill-opacity:0.37647059"
       id="path3340"
       sodipodi:sides="6"
       sodipodi:cx="328.57144"
       sodipodi:cy="26.647865"
       sodipodi:r1="31.943829"
       sodipodi:r2="15.971914"
       sodipodi:arg1="1.1071487"
       sodipodi:arg2="1.6307475"
       inkscape:flatsided="false"
       inkscape:rounded="0"
       inkscape:randomized="0"
       d="m 342.85716,55.219294 -15.24268,-12.628208 -16.64376,10.714286 3.31501,-19.51465 -17.60073,-9.056779 18.55769,-6.886441 -0.95696,-19.7710653 15.24267,12.6282083 16.64377,-10.71428606 -3.31501,19.51464906 17.60072,9.05678 -18.55769,6.88644 z"
       inkscape:transform-center-x="-1.1412182"
       inkscape:transform-center-y="1.8647717"
       transform="matrix(-0.18720755,0.98232038,-0.98232038,-0.18720755,342.2799,301.43033)" />
    <path
       sodipodi:type="star"
       style="opacity:0.5;fill:#8b8b8b;fill-opacity:0.37647059"
       id="path3342"
       sodipodi:sides="5"
       sodipodi:cx="126.71429"
       sodipodi:cy="221.93359"
       sodipodi:r1="24.578072"
       sodipodi:r2="9.8312292"
       sodipodi:arg1="0.62024949"
       sodipodi:arg2="1.248568"
       inkscape:flatsided="false"
       inkscape:rounded="0"
       inkscape:randomized="0"
       d="m 146.71429,236.21931 -16.88664,-4.96048 -10.51954,14.11042 -0.50057,-17.59302 -16.67052,-5.64432 16.57727,-5.9126 0.21659,-17.59881 10.74588,13.93883 16.80439,-5.23234 -9.93595,14.52728 z"
       inkscape:transform-center-x="-1.3616062"
       inkscape:transform-center-y="-1.0140133"
       transform="matrix(-0.18720755,0.98232038,-0.98232038,-0.18720755,342.2799,301.43033)" />
    <path
       sodipodi:type="star"
       style="opacity:0.5;fill:#8b8b8b;fill-opacity:0.37647059"
       id="path3344"
       sodipodi:sides="7"
       sodipodi:cx="540"
       sodipodi:cy="958.07654"
       sodipodi:r1="36.140316"
       sodipodi:r2="14.456126"
       sodipodi:arg1="-1.8925469"
       sodipodi:arg2="-1.4437479"
       inkscape:flatsided="false"
       inkscape:rounded="0"
       inkscape:randomized="0"
       d="m 528.57143,923.79082 13.26026,19.94611 17.84836,-15.9724 -7.32685,22.80348 23.616,3.99578 -22.3967,8.48938 11.6003,20.95506 -20.60137,-12.21741 -9.15066,22.13475 -3.29279,-23.72423 -23.01098,6.64652 16.49532,-17.36622 -19.54357,-13.84668 23.86213,2.0689 z"
       inkscape:transform-center-x="2.2648057"
       inkscape:transform-center-y="-2.4974336"
       transform="matrix(0.65292536,0.75742226,-0.75742226,0.65292536,636.95384,-107.80755)" />
    <path
       sodipodi:type="star"
       style="opacity:0.5;fill:#8b8b8b;fill-opacity:0.37647059"
       id="path3346"
       sodipodi:sides="5"
       sodipodi:cx="694.28571"
       sodipodi:cy="869.50507"
       sodipodi:r1="20.203051"
       sodipodi:r2="10.101525"
       sodipodi:arg1="-0.78539816"
       sodipodi:arg2="-0.15707963"
       inkscape:flatsided="false"
       inkscape:rounded="0"
       inkscape:randomized="0"
       d="m 708.57142,855.21935 -4.30856,12.70549 8.0239,10.75222 -13.41506,-0.17147 -7.74645,10.95379 -3.9824,-12.81146 -12.81146,-3.9824 10.95379,-7.74645 -0.17147,-13.41505 10.75222,8.02389 z"
       transform="matrix(0.65292536,0.75742226,-0.75742226,0.65292536,636.95384,-107.80755)" />
    <path
       sodipodi:type="star"
       style="opacity:0.5;fill:#8b8b8b;fill-opacity:0.37647059"
       id="path3348"
       sodipodi:sides="4"
       sodipodi:cx="474.28571"
       sodipodi:cy="803.79077"
       sodipodi:r1="16.659863"
       sodipodi:r2="8.3299313"
       sodipodi:arg1="0.5404195"
       sodipodi:arg2="1.3258177"
       inkscape:flatsided="false"
       inkscape:rounded="0"
       inkscape:randomized="0"
       d="m 488.57142,812.3622 -12.26541,-0.49021 -10.59173,6.2045 0.49021,-12.26541 -6.2045,-10.59174 12.26541,0.49021 10.59173,-6.20449 -0.4902,12.26541 z"
       transform="matrix(0.65292536,0.75742226,-0.75742226,0.65292536,636.95384,-107.80755)" />
    <rect
       style="opacity:0.5;fill:#8b8b8b;fill-opacity:0.37647059"
       id="rect4166"
       width="182.85934"
       height="1.5462193"
       x="-271.87149"
       y="93.39502"
       transform="matrix(-0.49970127,-0.86619781,0.85174455,-0.52395726,0,0)" />
    <path
       sodipodi:type="star"
       style="opacity:0.5;fill:#8b8b8b;fill-opacity:0.37647059"
       id="path4162"
       sodipodi:sides="7"
       sodipodi:cx="202"
       sodipodi:cy="589.36218"
       sodipodi:r1="34.713112"
       sodipodi:r2="17.356556"
       sodipodi:arg1="0.84654633"
       sodipodi:arg2="1.2953453"
       inkscape:flatsided="false"
       inkscape:rounded="0"
       inkscape:randomized="0"
       d="m 225,615.36218 -18.27935,-9.29774 -10.708,17.4906 -4.12772,-20.08841 -20.35104,2.53335 13.13217,-15.7521 -14.66932,-14.33156 20.50326,0.44586 2.05869,-20.40452 12.43499,16.30809 17.23647,-11.11246 -4.9971,19.88999 19.43484,6.54751 -18.66626,8.49433 z"
       inkscape:transform-center-x="1.036103"
       inkscape:transform-center-y="0.66733385"
       transform="matrix(-0.01306117,-0.52341412,0.50279548,-0.01254666,-69.4416,312.48748)" />
    <path
       sodipodi:type="star"
       style="opacity:0.5;fill:#8b8b8b;fill-opacity:0.37647059"
       id="path4164"
       sodipodi:sides="5"
       sodipodi:cx="557"
       sodipodi:cy="388.36215"
       sodipodi:r1="19.416489"
       sodipodi:r2="9.7082443"
       sodipodi:arg1="0.60228735"
       sodipodi:arg2="1.2306059"
       inkscape:flatsided="false"
       inkscape:rounded="0"
       inkscape:randomized="0"
       d="m 573,399.36215 -12.76068,-1.84812 -8.75667,9.46421 -2.1856,-12.70723 -11.70696,-5.40348 11.40991,-6.00538 1.52137,-12.80375 9.23731,8.99571 12.64721,-2.50968 -5.70093,11.56503 z"
       inkscape:transform-center-x="-0.39219488"
       inkscape:transform-center-y="0.081716619"
       transform="matrix(-0.01306117,-0.52341412,0.50279548,-0.01254666,-69.4416,312.48748)" />
    <path
       sodipodi:type="spiral"
       style="opacity:0.5;fill:none;fill-rule:evenodd;stroke:#999999;stroke-width:1px;stroke-linecap:butt;stroke-linejoin:miter;stroke-opacity:0.78431373"
       id="path4178"
       sodipodi:cx="-602.15472"
       sodipodi:cy="404.36218"
       sodipodi:expansion="1"
       sodipodi:revolution="5.2154875"
       sodipodi:radius="56.22858"
       sodipodi:argument="-17.523739"
       sodipodi:t0="0.1142244"
       d="m -599.91295,398.34344 c 4.44069,0.42533 7.01493,5.06556 6.30272,9.20128 -1.0005,5.80977 -7.14402,9.07839 -12.66779,7.88772 -7.17966,-1.54762 -11.15441,-9.22726 -9.47271,-16.13431 2.08193,-8.55093 11.31281,-13.23713 19.60082,-11.05772 9.92327,2.60942 15.32383,13.39974 12.64271,23.06734 -3.13283,11.29638 -15.48752,17.41311 -26.53385,14.22772 -12.67004,-3.65363 -19.50414,-17.5759 -15.81272,-30.00037 4.17264,-14.04411 19.6647,-21.59641 33.46689,-17.39772 15.41849,4.69038 23.68959,21.75381 18.98271,36.93341 -5.20719,16.79309 -23.84316,25.78346 -40.39992,20.56771 -18.16789,-5.7233 -27.87787,-25.93271 -22.15271,-43.86644 6.23886,-19.54283 28.0224,-29.97271 47.33296,-23.73771 20.91789,6.75399 32.06789,30.11221 25.3227,50.79947 -7.26876,22.29305 -32.20212,34.16336 -54.26598,26.90771 -23.66829,-7.78327 -36.25905,-34.29212 -28.49271,-57.7325 8.29753,-25.0436 36.38218,-38.35494 61.19902,-30.07771 26.41896,8.81159 40.45098,38.4723 31.6627,64.66554 -9.32549,27.79437 -40.56247,42.54716 -68.13205,33.2477 -13.29006,-4.48286 -24.53764,-14.07672 -31.16261,-26.42775"
       transform="matrix(-1.4883734,0,0,1.5871351,-359.98671,-560.92166)" />
    <path
       sodipodi:type="star"
       style="opacity:0.5;fill:#8b8b8b;fill-opacity:0.37647059"
       id="path3342-6"
       sodipodi:sides="6"
       sodipodi:cx="126.71429"
       sodipodi:cy="221.93359"
       sodipodi:r1="24.578072"
       sodipodi:r2="9.8312292"
       sodipodi:arg1="0.62024949"
       sodipodi:arg2="1.1438483"
       inkscape:flatsided="false"
       inkscape:rounded="0"
       inkscape:randomized="0"
       d="m 146.71429,236.21931 -15.92894,-5.337 -6.44285,15.51465 -3.3425,-16.46337 -16.6575,2.17765 12.58644,-11.12636 -10.21465,-13.337 15.92894,5.337 6.44285,-15.51465 3.34249,16.46336 16.65751,-2.17765 -12.58645,11.12637 z"
       inkscape:transform-center-x="-1.6570583"
       inkscape:transform-center-y="0.36923703"
       transform="matrix(-0.86626388,0.49958672,-0.49958672,-0.86626388,749.7677,933.50218)" />
    <rect
       transform="matrix(-0.49692528,0.86779333,-0.87534684,-0.48349551,0,0)"
       y="-863.50244"
       x="470.79016"
       height="2.5350947"
       width="162.81969"
       id="rect4165"
       style="opacity:0.5;fill:#8b8b8b;fill-opacity:0.37647059" />
    <ellipse
       style="opacity:0.5;fill:#333333;fill-opacity:0.37647059;fill-rule:nonzero;stroke:#999999;stroke-width:2;stroke-miterlimit:4;stroke-dasharray:none;stroke-dashoffset:0;stroke-opacity:0.78431373"
       id="path4167"
       cx="631"
       cy="477.36215"
       rx="32"
       ry="122" />
    <ellipse
       style="opacity:0.5;fill:#333333;fill-opacity:0.37647059;fill-rule:nonzero;stroke:#999999;stroke-width:2;stroke-miterlimit:4;stroke-dasharray:none;stroke-dashoffset:0;stroke-opacity:0.78431373"
       id="path4169"
       cx="601.5"
       cy="494.36215"
       rx="113.5"
       ry="35" />
    <circle
       style="opacity:0.5;fill:#e6e6e6;fill-opacity:0.37647059;fill-rule:nonzero;stroke:none;stroke-width:2;stroke-miterlimit:4;stroke-dasharray:none;stroke-dashoffset:0;stroke-opacity:0.78431373"
       id="path4171"
       cx="637.5"
       cy="498.86215"
       r="9.5" />
    <path
       sodipodi:type="star"
       style="opacity:0.5;fill:#e6e6e6;fill-opacity:0.37647059;fill-rule:nonzero;stroke:none;stroke-width:2;stroke-miterlimit:4;stroke-dasharray:none;stroke-dashoffset:0;stroke-opacity:0.78431373"
       id="path4173"
       sodipodi:sides="5"
       sodipodi:cx="687"
       sodipodi:cy="176.36216"
       sodipodi:r1="17.888544"
       sodipodi:r2="8.944272"
       sodipodi:arg1="1.1071487"
       sodipodi:arg2="1.7354672"
       inkscape:flatsided="false"
       inkscape:rounded="0"
       inkscape:randomized="0"
       d="m 695,192.36217 -9.46621,-7.17673 -11.27856,3.72945 3.90025,-11.22063 -7.03218,-9.57408 11.8767,0.24199 6.93243,-9.64656 3.43995,11.37019 11.31666,3.61219 -9.75069,6.78517 z"
       inkscape:transform-center-x="-0.90617012"
       inkscape:transform-center-y="-0.82327697" />
    <path
       sodipodi:type="star"
       style="opacity:0.5;fill:#e6e6e6;fill-opacity:0.37647059;fill-rule:nonzero;stroke:none;stroke-width:2;stroke-miterlimit:4;stroke-dasharray:none;stroke-dashoffset:0;stroke-opacity:0.78431373"
       id="path4175"
       sodipodi:sides="4"
       sodipodi:cx="428"
       sodipodi:cy="-19.63784"
       sodipodi:r1="13.341664"
       sodipodi:r2="6.6708322"
       sodipodi:arg1="1.3439975"
       sodipodi:arg2="2.1293957"
       inkscape:flatsided="false"
       inkscape:rounded="0"
       inkscape:randomized="0"
       d="M 431,-6.63784 424.46447,-13.980986 415,-16.63784 l 7.34315,-6.535535 2.65685,-9.464466 6.53553,7.343147 9.46447,2.656854 -7.34315,6.535534 z"
       inkscape:transform-center-x="-0.92705099"
       inkscape:transform-center-y="0.35971166" />
    <path
       sodipodi:type="star"
       style="opacity:0.5;fill:#e6e6e6;fill-opacity:0.37647059;fill-rule:nonzero;stroke:none;stroke-width:2;stroke-miterlimit:4;stroke-dasharray:none;stroke-dashoffset:0;stroke-opacity:0.78431373"
       id="path4177"
       sodipodi:sides="6"
       sodipodi:cx="709"
       sodipodi:cy="416.36215"
       sodipodi:r1="10.221546"
       sodipodi:r2="25.553865"
       sodipodi:arg1="1.0370881"
       sodipodi:arg2="1.5606869"
       inkscape:flatsided="false"
       inkscape:rounded="0"
       inkscape:randomized="0"
       d="m 714.2,425.16215 -4.94167,16.75256 -5.27935,-16.64923 -16.97898,4.09667 11.77898,-12.89667 -12.03731,-12.65589 17.05833,3.75256 4.94167,-16.75256 5.27935,16.64923 16.97898,-4.09667 -11.77898,12.89667 12.03731,12.65589 z" />
  </g>
</svg>
