<?xml version="1.0" encoding="UTF-8" standalone="no"?>
<!-- Created with Inkscape (http://www.inkscape.org/) -->

<svg
   xmlns:dc="http://purl.org/dc/elements/1.1/"
   xmlns:cc="http://creativecommons.org/ns#"
   xmlns:rdf="http://www.w3.org/1999/02/22-rdf-syntax-ns#"
   xmlns:svg="http://www.w3.org/2000/svg"
   xmlns="http://www.w3.org/2000/svg"
   xmlns:sodipodi="http://sodipodi.sourceforge.net/DTD/sodipodi-0.dtd"
   xmlns:inkscape="http://www.inkscape.org/namespaces/inkscape"
   width="200"
   height="200"
   viewBox="0 0 200 200"
   id="svg4188"
   version="1.1"
   inkscape:version="0.91 r13725"
   sodipodi:docname="levelbg_open.svg">
  <defs
     id="defs4190" />
  <sodipodi:namedview
     id="base"
     pagecolor="#ffffff"
     bordercolor="#666666"
     borderopacity="1.0"
     inkscape:pageopacity="0.0"
     inkscape:pageshadow="2"
     inkscape:zoom="1"
     inkscape:cx="-175"
     inkscape:cy="20.424328"
     inkscape:document-units="px"
     inkscape:current-layer="layer1"
     showgrid="false"
     units="px"
     inkscape:window-width="1920"
     inkscape:window-height="1017"
     inkscape:window-x="-8"
     inkscape:window-y="-8"
     inkscape:window-maximized="1" />
  <metadata
     id="metadata4193">
    <rdf:RDF>
      <cc:Work
         rdf:about="">
        <dc:format>image/svg+xml</dc:format>
        <dc:type
           rdf:resource="http://purl.org/dc/dcmitype/StillImage" />
        <dc:title></dc:title>
      </cc:Work>
    </rdf:RDF>
  </metadata>
  <g
     inkscape:label="Layer 1"
     inkscape:groupmode="layer"
     id="layer1"
     transform="translate(0,-852.36216)">
    <path
       style="opacity:1;fill:#1a1a1a;fill-opacity:1;fill-rule:nonzero;stroke:none;stroke-width:4;stroke-linecap:round;stroke-linejoin:round;stroke-miterlimit:4;stroke-dasharray:24, 8;stroke-dashoffset:0;stroke-opacity:0.25098039"
       d="M 10 0 C 4.46 0 0 4.46 0 10 L 0 190 C 0 195.54 4.46 200 10 200 L 190 200 C 195.54 200 200 195.54 200 190 L 200 10 C 200 4.46 195.54 0 190 0 L 10 0 z M 19 10 L 181 10 C 185.986 10 190 14.014 190 19 L 190 181 C 190 185.986 185.986 190 181 190 L 19 190 C 14.014 190 10 185.986 10 181 L 10 19 C 10 14.014 14.014 10 19 10 z "
       transform="translate(0,852.36216)"
       id="rect4736" />
    <rect
       ry="9"
       rx="9"
       y="862.36218"
       x="10"
       height="180"
       width="180"
       id="rect4738"
       style="opacity:0.5;fill:#1a1a1a;fill-opacity:0.25098039;fill-rule:nonzero;stroke:none;stroke-width:4;stroke-linecap:round;stroke-linejoin:round;stroke-miterlimit:4;stroke-dasharray:24, 8;stroke-dashoffset:0;stroke-opacity:0.25098039" />
  </g>
</svg>
